<svg height="60" viewBox="0 0 150 60" width="150" xmlns="http://www.w3.org/2000/svg"><g fill="none"><path d="m7.82941654 0h134.34116646c4.323019 0 7.829417 3.53281421 7.829417 7.88979866v43.43092954c0 4.3569845-3.506398 7.8897981-7.829417 7.8897981h-134.34116646c-4.32301891 0-7.82941654-3.5328136-7.82941654-7.8897981v-43.43092954c0-4.35698445 3.50639763-7.88979866 7.82941654-7.88979866z" fill="#0057a8"/><g fill="#fff" transform="translate(19.05 20.968)"><path d="m11.2942913 7.22383307c0 2.34749303-.6366885 4.14399633-1.90083658 5.38950993-1.26876259 1.2501435-3.09578031 1.8705859-5.48105315 1.8705859h-3.91240157v-14.26090258h4.33686024c2.20072559 0 3.91240156.62044246 5.13041339 1.85206527 1.21801177 1.22236309 1.82701767 2.94015393 1.82701767 5.14874148zm-1.75319879.05556195c0-1.8613262-.4613681-3.26426475-1.38410431-4.20418818-.92273623-.93529237-2.29761379-1.40756961-4.11540356-1.40756961h-2.39911417v11.39020147h2.01156496c1.9562008 0 3.4233508-.4861669 4.41067914-1.4631316.98271377-.9723337 1.47637794-2.41231472 1.47637794-4.31531208zm17.16488289.05478347c0 2.28730121-.5720964 4.08380331-1.7162893 5.38951001-1.1441929 1.3103364-2.7312992 1.9631891-4.7613189 1.9631891-2.0946107 0-3.7047862-.6389631-4.8351378-1.9261478-1.134965-1.282555-1.6978347-3.09757891-1.6978347-5.44507196 0-2.31971146.5628697-4.11621478 1.6978347-5.38950995 1.1441929-1.28255491 2.7589807-1.92614789 4.8535925-1.92614789 2.0300197 0 3.6078992.65748377 4.7428642 1.96318919 1.1441929 1.29644569 1.7162893 3.08831915 1.7162893 5.3709893zm-11.2573818 0c0 1.94003868.4060039 3.40780011 1.2180118 4.40791531.8120078.9908556 1.9977236 1.4816523 3.5617618 1.4816523 1.5594248 0 2.7405271-.4907967 3.5433071-1.4816523.7981665-1.0001152 1.199557-2.46787663 1.199557-4.40791531 0-1.9122571-.4013905-3.36149907-1.199557-4.3523534-.80278-1.00011525-1.9746556-1.50017287-3.5248524-1.50017287-1.5778795 0-2.7682087.50005762-3.5802165 1.50017287-.8120079 1.00011525-1.2180118 2.45398709-1.2180118 4.3523534zm26.7513391 7.14975041h-1.6240158l-2.8604823-9.53813612c-.1384098-.43060489-.2906622-.96770383-.4613681-1.61129681-.1614791-.63896192-.2491393-1.02326575-.2583661-1.14828046-.138411.85195004-.3598677 1.79187344-.6643701 2.81513922l-2.7682087 9.48257417h-1.6240157l-3.7647638-14.26090258h1.7347441l2.2330217 8.81583071c.3183437 1.23625387.5444137 2.35212287.6828248 3.35223817.1707059-1.1853218.429072-2.3521229.7750984-3.50040338l2.5282972-8.6676655h1.7531989l2.6574803 8.76026875c.3045023 1.00011525.5628685 2.13913483.7750984 3.40780013.1199551-.9260327.3552531-2.0465327.7012795-3.37075881l2.2145669-8.79731007h1.7531989zm17.0379999 0h-1.8823819l-7.7325296-11.96434164h-.0738189c.1107284 1.40756961.1660926 2.69938544.1660926 3.87081644v8.0935252h-1.5317422v-14.26090258h1.8639272l7.6956201 11.92730038h.0922736c-.0138413-.1852065-.0461362-.7500859-.0922736-1.7039-.0507508-.94918321-.0692055-1.62981749-.0553642-2.03727186v-8.18612852h1.5501969z"/><path d="m63.111 14.485v-14.262h1.642v12.76h6.238v1.502z"/><path d="m85.6579491 7.33417849c0 2.28730121-.5720964 4.08380331-1.7162894 5.38951001-1.1441928 1.3103364-2.7312991 1.9631891-4.7613188 1.9631891-2.0946107 0-3.7047862-.6389631-4.8351378-1.9261478-1.134965-1.282555-1.6978347-3.09757891-1.6978347-5.44507196 0-2.31971146.5628697-4.11621478 1.6978347-5.38950995 1.1441929-1.28255491 2.7589807-1.92614789 4.8535925-1.92614789 2.0300197 0 3.6078992.65748377 4.7428641 1.96318919 1.144193 1.29644569 1.7162894 3.08831915 1.7162894 5.3709893zm-11.2573819 0c0 1.94003868.406004 3.40780011 1.2180119 4.40791531.8120078.9908556 1.9977236 1.4816523 3.5617618 1.4816523 1.5594248 0 2.7405271-.4907967 3.543307-1.4816523.7981666-1.0001152 1.1995571-2.46787663 1.1995571-4.40791531 0-1.9122571-.4013905-3.36149907-1.1995571-4.3523534-.8027799-1.00011525-1.9746555-1.50017287-3.5248523-1.50017287-1.5778795 0-2.7682087.50005762-3.5802165 1.50017287-.8120079 1.00011525-1.2180119 2.45398709-1.2180119 4.3523534zm23.3001192 7.14807561-1.7716536-4.53755996h-5.6656004l-1.734744 4.53755996h-1.6609252l5.5917815-14.31646463h1.3841043l5.554872 14.31646463zm-2.2699311-6.01921218-1.6424705-4.42643601c-.2214567-.55561958-.4429134-1.24088375-.6643701-2.05579246-.1476378.62970219-.3506397 1.31496634-.6090059 2.05579246l-1.6609252 4.42643601zm17.1984047-1.23920885c0 2.34749303-.636689 4.14399633-1.900837 5.38950993-1.268762 1.2501435-3.09578 1.8705859-5.481053 1.8705859h-3.912402v-14.26090258h4.336861c2.200725 0 3.912401.62044246 5.130413 1.85206527 1.218012 1.22236309 1.827018 2.94015393 1.827018 5.14874148zm-1.753199.05556195c0-1.8613262-.461368-3.26426475-1.384104-4.20418818-.922737-.93529237-2.297614-1.40756961-4.115404-1.40756961h-2.399114v11.39020147h2.011565c1.956201 0 3.423351-.4861669 4.410679-1.4631316.982714-.9723337 1.476378-2.41231472 1.476378-4.31531208z"/></g></g></svg>