<svg height="60" viewBox="0 0 150 60" width="150" xmlns="http://www.w3.org/2000/svg"><g fill="none"><path d="m7.82941654 0h134.34116646c4.323019 0 7.829417 3.53281421 7.829417 7.88979866v43.43092954c0 4.3569845-3.506398 7.8897981-7.829417 7.8897981h-134.34116646c-4.32301891 0-7.82941654-3.5328136-7.82941654-7.8897981v-43.43092954c0-4.35698445 3.50639763-7.88979866 7.82941654-7.88979866z" fill="#0047dd"/><g fill="#fff"><path d="m20.8995364 27.9889646h4.816683v6.9267242c-.7520303.2500282-1.5132874.4352353-2.2883858.5556196-.7750984.1203848-1.6747665.1852065-2.6943898.1852065-2.140748 0-3.8109011-.6389631-5.0012303-1.9261479-1.1949437-1.2825549-1.7901082-3.0836893-1.7901082-5.4080306 0-1.4816522.2952756-2.7780979.8858267-3.8893371.5905512-1.1112392 1.4394685-1.9631892 2.546752-2.5558501 1.1165114-.5926609 2.4221823-.8889913 3.9124016-.8889913 1.499446 0 2.9020051.2870695 4.2076771.85195l-.6459153 1.4631316c-1.2687626-.5556196-2.4913878-.8334294-3.6724902-.8334294-1.7255161 0-3.0727122.5185783-4.0415846 1.5557348-.9596457 1.0371566-1.4394685 2.4725066-1.4394685 4.2967915 0 1.9261479.4613681 3.3892795 1.3841043 4.3893947.9319642.9908555 2.3068406 1.4816522 4.1154035 1.4816522.9827138 0 1.9423595-.1111239 2.8789371-.3333717v-4.3893947h-3.1742126z"/><path d="m36.975 35.453h-7.881v-14.262h7.881v1.483h-6.239v4.592h5.87v1.463h-5.87v5.242h6.239z"/><path d="m44.461 35.453h-1.642v-12.779h-4.484v-1.483h10.61v1.483h-4.484z"/><path d="m64.1938614 31.6560539c0 1.2594044-.4567547 2.240999-1.3656496 2.9447838-.8996681.7037848-2.1222933 1.0556772-3.6724902 1.0556772-1.6747665 0-2.9619838-.2222478-3.8570374-.6667435v-1.5927761c.5767099.2500282 1.2041705.4444956 1.8823819.5926608.6874382.1389043 1.3656496.2037272 2.0300197.2037272 1.0934421 0 1.9192913-.208357 2.4729331-.6297022.5536417-.4167141.8304626-1.0001152.8304626-1.7409413 0-.4907967-.1015004-.8936212-.2952756-1.2038425-.1983886-.3194809-.5259603-.6158114-.9781004-.8889913-.4567547-.2685501-1.1580343-.5741402-2.1038386-.907512-1.3195134-.4676462-2.2607032-1.0278968-2.8235728-1.6853794-.5674831-.6528527-.8489174-1.5001729-.8489174-2.5373294 0-1.0973484.4106174-1.9724489 1.2364666-2.6299327.8212346-.6528527 1.90545-.9815946 3.2480315-.9815946 1.402559 0 2.6943897.2685501 3.8754921.7963881l-.5167323 1.4260902c-1.1580343-.4907979-2.2883858-.7408261-3.3956693-.7408261-.8766 0-1.5594236.1944675-2.0484744.5741402-.4798228.3704131-.7197342.8982511-.7197342 1.5742555 0 .4954278.0830456.9028821.2583661 1.2223631.1845472.3102213.4890496.5926609.9227362.85195.4290721.2592892 1.0796008.5509898 1.9562008.8704707 1.4856047.5324691 2.5098425 1.1066093 3.0634842 1.7224207.5628686.6065517.8489174 1.3983087.8489174 2.3706436z"/><path d="m71.424 35.453h-1.642v-12.779h-4.485v-1.483h10.611v1.483h-4.484z"/><path d="m86.9184495 35.4526488-1.7716535-4.5375599h-5.6656004l-1.7347441 4.5375599h-1.6609252l5.5917815-14.3164646h1.3841043l5.5548721 14.3164646zm-2.2699311-6.0192121-1.6424704-4.4264361c-.2214567-.5556195-.4429134-1.2408837-.6643701-2.0557924-.1476378.6297022-.3506398 1.3149663-.6090059 2.0557924l-1.6609252 4.4264361zm7.5465837.0923044v5.9266089h-1.6424705v-14.2609026h3.8754921c1.7347441 0 3.0127335.3426315 3.8385827 1.0186359.835076.6667435 1.2549212 1.6761196 1.2549212 3.0188664 0 1.8798468-.9504177 3.1485109-2.8420275 3.8152544l3.8385829 6.4081459h-1.9377463l-3.4325787-5.9266089zm0-1.4260903h2.2514763c1.167261 0 2.0207929-.2268777 2.5652067-.6852641.5398004-.4676462.8120079-1.1668011.8120079-2.0928338 0-.9491831-.2768209-1.6298174-.8304626-2.0372718-.5536417-.4167152-1.4394685-.6297022-2.6574803-.6297022h-2.140748z"/><path d="m107.145 35.453h-1.642v-12.779h-4.484v-1.483h10.611v1.483h-4.485z"/><path d="m121.624 35.453h-7.881v-14.262h7.881v1.483h-6.238v4.592h5.869v1.463h-5.869v5.242h6.238z"/><path d="m136.05087 28.1922541c0 2.3474931-.636688 4.1439964-1.900836 5.38951-1.268763 1.2501434-3.095781 1.8705859-5.481053 1.8705859h-3.912402v-14.2609026h4.33686c2.200726 0 3.912402.6204424 5.130414 1.8520652 1.218011 1.2223631 1.827017 2.940154 1.827017 5.1487415zm-1.753199.055562c0-1.8613262-.461368-3.2642648-1.384104-4.2041882-.922736-.9352924-2.297614-1.4075696-4.115403-1.4075696h-2.399115v11.3902014h2.011565c1.956201 0 3.423351-.4861668 4.41068-1.4631315.982713-.9723337 1.476377-2.4123148 1.476377-4.3153121z"/></g></g></svg>