<svg xmlns="http://www.w3.org/2000/svg" width="300" height="100" viewBox="0 0 300 100">
  <g fill="none" fill-rule="evenodd">
    <rect width="300" height="100"/>
    <path fill="#0047DD" fill-rule="nonzero" d="M82.8294165,20 L217.170583,20 C221.493602,20 225,23.5328142 225,27.8897987 L225,71.3207282 C225,75.6777127 221.493602,79.2105263 217.170583,79.2105263 L82.8294165,79.2105263 C78.5063976,79.2105263 75,75.6777127 75,71.3207282 L75,27.8897987 C75,23.5328142 78.5063976,20 82.8294165,20 Z"/>
    <path fill="#FFF" fill-rule="nonzero" d="M95.8995364,47.9889646 L100.716219,47.9889646 L100.716219,54.9156888 C99.9641891,55.165717 99.202932,55.3509241 98.4278336,55.4713084 C97.6527352,55.5916932 96.7530671,55.6565149 95.7334438,55.6565149 C93.5926958,55.6565149 91.9225427,55.0175518 90.7322135,53.730367 C89.5372698,52.4478121 88.9421053,50.6466777 88.9421053,48.3223364 C88.9421053,46.8406842 89.2373809,45.5442385 89.827932,44.4329993 C90.4184832,43.3217601 91.2674005,42.4698101 92.374684,41.8771492 C93.4911954,41.2844883 94.7968663,40.9881579 96.2870856,40.9881579 C97.7865316,40.9881579 99.1890907,41.2752274 100.494763,41.8401079 L99.8488474,43.3032395 C98.5800848,42.7476199 97.3574596,42.4698101 96.1763572,42.4698101 C94.4508411,42.4698101 93.103645,42.9883884 92.1347726,44.0255449 C91.1751269,45.0627015 90.6953041,46.4980515 90.6953041,48.3223364 C90.6953041,50.2484843 91.1566722,51.7116159 92.0794084,52.7117311 C93.0113726,53.7025866 94.386249,54.1933833 96.1948119,54.1933833 C97.1775257,54.1933833 98.1371714,54.0822594 99.073749,53.8600116 L99.073749,49.4706169 L95.8995364,49.4706169 L95.8995364,47.9889646 Z"/>
    <polygon fill="#FFF" fill-rule="nonzero" points="111.975 55.453 104.094 55.453 104.094 41.191 111.975 41.191 111.975 42.674 105.736 42.674 105.736 47.266 111.606 47.266 111.606 48.729 105.736 48.729 105.736 53.971 111.975 53.971"/>
    <polygon fill="#FFF" fill-rule="nonzero" points="119.461 55.453 117.819 55.453 117.819 42.674 113.335 42.674 113.335 41.191 123.945 41.191 123.945 42.674 119.461 42.674"/>
    <path fill="#FFF" fill-rule="nonzero" d="M139.193861,51.6560539 C139.193861,52.9154583 138.737107,53.8970529 137.828212,54.6008377 C136.928544,55.3046225 135.705918,55.6565149 134.155722,55.6565149 C132.480955,55.6565149 131.193738,55.4342671 130.298684,54.9897714 L130.298684,53.3969953 C130.875394,53.6470235 131.502855,53.8414909 132.181066,53.9896561 C132.868504,54.1285604 133.546716,54.1933833 134.211086,54.1933833 C135.304528,54.1933833 136.130377,53.9850263 136.684019,53.5636811 C137.237661,53.146967 137.514481,52.5635659 137.514481,51.8227398 C137.514481,51.3319431 137.412981,50.9291186 137.219206,50.6188973 C137.020817,50.2994164 136.693246,50.0030859 136.241106,49.729906 C135.784351,49.4613559 135.083071,49.1557658 134.137267,48.822394 C132.817754,48.3547478 131.876564,47.7944972 131.313694,47.1370146 C130.746211,46.4841619 130.464777,45.6368417 130.464777,44.5996852 C130.464777,43.5023368 130.875394,42.6272363 131.701243,41.9697525 C132.522478,41.3168998 133.606693,40.9881579 134.949275,40.9881579 C136.351834,40.9881579 137.643664,41.256708 138.824767,41.784546 L138.308035,43.2106362 C137.15,42.7198383 136.019649,42.4698101 134.912365,42.4698101 C134.035765,42.4698101 133.352942,42.6642776 132.863891,43.0439503 C132.384068,43.4143634 132.144157,43.9422014 132.144157,44.6182058 C132.144157,45.1136336 132.227202,45.5210879 132.402523,45.8405689 C132.58707,46.1507902 132.891572,46.4332298 133.325259,46.6925189 C133.754331,46.9518081 134.40486,47.2435087 135.28146,47.5629896 C136.767065,48.0954587 137.791302,48.6695989 138.344944,49.2854103 C138.907813,49.891962 139.193861,50.683719 139.193861,51.6560539 Z"/>
    <polygon fill="#FFF" fill-rule="nonzero" points="146.424 55.453 144.782 55.453 144.782 42.674 140.297 42.674 140.297 41.191 150.908 41.191 150.908 42.674 146.424 42.674"/>
    <path fill="#FFF" fill-rule="nonzero" d="M161.91845,55.4526488 L160.146796,50.9150889 L154.481196,50.9150889 L152.746452,55.4526488 L151.085526,55.4526488 L156.677308,41.1361842 L158.061412,41.1361842 L163.616284,55.4526488 L161.91845,55.4526488 Z M159.648518,49.4334367 L158.006048,45.0070006 C157.784591,44.4513811 157.563135,43.7661169 157.341678,42.9512082 C157.19404,43.5809104 156.991038,44.2661745 156.732672,45.0070006 L155.071747,49.4334367 L159.648518,49.4334367 Z M167.195102,49.5257411 L167.195102,55.45235 L165.552632,55.45235 L165.552632,41.1914474 L169.428124,41.1914474 C171.162868,41.1914474 172.440857,41.5340789 173.266706,42.2100833 C174.101782,42.8768268 174.521628,43.8862029 174.521628,45.2289497 C174.521628,47.1087965 173.57121,48.3774606 171.6796,49.0442041 L175.518183,55.45235 L173.580437,55.45235 L170.147858,49.5257411 L167.195102,49.5257411 Z M167.195102,48.0996508 L169.446578,48.0996508 C170.613839,48.0996508 171.467371,47.8727731 172.011785,47.4143867 C172.551585,46.9467405 172.823793,46.2475856 172.823793,45.3215529 C172.823793,44.3723698 172.546972,43.6917355 171.99333,43.2842811 C171.439689,42.8675659 170.553862,42.6545789 169.33585,42.6545789 L167.195102,42.6545789 L167.195102,48.0996508 Z"/>
    <polygon fill="#FFF" fill-rule="nonzero" points="182.145 55.453 180.503 55.453 180.503 42.674 176.019 42.674 176.019 41.191 186.63 41.191 186.63 42.674 182.145 42.674"/>
    <polygon fill="#FFF" fill-rule="nonzero" points="196.624 55.453 188.743 55.453 188.743 41.191 196.624 41.191 196.624 42.674 190.386 42.674 190.386 47.266 196.255 47.266 196.255 48.729 190.386 48.729 190.386 53.971 196.624 53.971"/>
    <path fill="#FFF" fill-rule="nonzero" d="M211.05087,48.1922541 C211.05087,50.5397472 210.414182,52.3362505 209.150034,53.5817641 C207.881271,54.8319075 206.054253,55.45235 203.668981,55.45235 L199.756579,55.45235 L199.756579,41.1914474 L204.093439,41.1914474 C206.294165,41.1914474 208.005841,41.8118898 209.223853,43.0435126 C210.441864,44.2658757 211.05087,45.9836666 211.05087,48.1922541 Z M209.297671,48.2478161 C209.297671,46.3864899 208.836303,44.9835513 207.913567,44.0436279 C206.990831,43.1083355 205.615953,42.6360583 203.798164,42.6360583 L201.399049,42.6360583 L201.399049,54.0262597 L203.410614,54.0262597 C205.366815,54.0262597 206.833965,53.5400929 207.821294,52.5631282 C208.804007,51.5907945 209.297671,50.1508134 209.297671,48.2478161 Z"/>
  </g>
</svg>
