<svg xmlns="http://www.w3.org/2000/svg" width="150" height="60" viewBox="0 0 150 60">
  <g fill="none">
    <path fill="#0057A8" d="M7.82941654,0 L142.170583,0 C146.493602,0 150,3.53281421 150,7.88979866 L150,51.3207282 C150,55.6777127 146.493602,59.2105263 142.170583,59.2105263 L7.82941654,59.2105263 C3.50639763,59.2105263 0,55.6777127 0,51.3207282 L0,7.88979866 C0,3.53281421 3.50639763,0 7.82941654,0 Z"/>
    <g fill="#FFF" transform="translate(19.05 20.968)">
      <path d="M11.2942913 7.22383307C11.2942913 9.5713261 10.6576028 11.3678294 9.39345472 12.613343 8.12469213 13.8634865 6.29767441 14.4839289 3.91240157 14.4839289L0 14.4839289 0 .223026316 4.33686024.223026316C6.53758583.223026316 8.2492618.843468776 9.46727363 2.07509159 10.6852854 3.29745468 11.2942913 5.01524552 11.2942913 7.22383307zM9.54109251 7.27939502C9.54109251 5.41806882 9.07972441 4.01513027 8.1569882 3.07520684 7.23425197 2.13991447 5.85937441 1.66763723 4.04158464 1.66763723L1.64247047 1.66763723 1.64247047 13.0578387 3.65403543 13.0578387C5.61023623 13.0578387 7.07738623 12.5716718 8.06471457 11.5947071 9.04742834 10.6223734 9.54109251 9.18239238 9.54109251 7.27939502zM26.7059754 7.33417849C26.7059754 9.6214797 26.133879 11.4179818 24.9896861 12.7236885 23.8454932 14.0340249 22.2583869 14.6868776 20.2283672 14.6868776 18.1337565 14.6868776 16.523581 14.0479145 15.3932294 12.7607298 14.2582644 11.4781748 13.6953947 9.66315089 13.6953947 7.31565784 13.6953947 4.99594638 14.2582644 3.19944306 15.3932294 1.92614789 16.5374223.64359298 18.1522101 0 20.2468219 0 22.2768416 0 23.8547211.657483766 24.9896861 1.96318919 26.133879 3.25963488 26.7059754 5.05150834 26.7059754 7.33417849zM15.4485936 7.33417849C15.4485936 9.27421717 15.8545975 10.7419786 16.6666054 11.7420938 17.4786132 12.7329494 18.664329 13.2237461 20.2283672 13.2237461 21.787792 13.2237461 22.9688943 12.7329494 23.7716743 11.7420938 24.5698408 10.7419786 24.9712313 9.27421717 24.9712313 7.33417849 24.9712313 5.42192139 24.5698408 3.97267942 23.7716743 2.98182509 22.9688943 1.98170984 21.7970187 1.48165222 20.2468219 1.48165222 18.6689424 1.48165222 17.4786132 1.98170984 16.6666054 2.98182509 15.8545975 3.98194034 15.4485936 5.43581218 15.4485936 7.33417849zM42.1999327 14.4839289L40.5759169 14.4839289 37.7154346 4.94579278C37.5770248 4.51518789 37.4247724 3.97808895 37.2540665 3.33449597 37.0925874 2.69553405 37.0049272 2.31123022 36.9957004 2.18621551 36.8572894 3.03816555 36.6358327 3.97808895 36.3313303 5.00135473L33.5631216 14.4839289 31.9391059 14.4839289 28.1743421.223026316 29.9090862.223026316 32.1421079 9.03885703C32.4604516 10.2751109 32.6865216 11.3909799 32.8249327 12.3910952 32.9956386 11.2057734 33.2540047 10.0389723 33.6000311 8.89069182L36.1283283.223026316 37.8815272.223026316 40.5390075 8.98329507C40.8435098 9.98341032 41.101876 11.1224299 41.3141059 12.3910952 41.434061 11.4650625 41.669359 10.3445625 42.0153854 9.02033639L44.2299523.223026316 45.9831512.223026316 42.1999327 14.4839289zM59.2379326 14.4839289L57.3555507 14.4839289 49.6230211 2.51958726 49.5492022 2.51958726C49.6599306 3.92715687 49.7152948 5.2189727 49.7152948 6.3904037L49.7152948 14.4839289 48.1835526 14.4839289 48.1835526.223026316 50.0474798.223026316 57.7430999 12.1503267 57.8353735 12.1503267C57.8215322 11.9651202 57.7892373 11.4002408 57.7430999 10.4464267 57.6923491 9.49724349 57.6738944 8.81660921 57.6877357 8.40915484L57.6877357.223026316 59.2379326.223026316 59.2379326 14.4839289z"/>
      <polygon points="63.111 14.485 63.111 .223 64.753 .223 64.753 12.983 70.991 12.983 70.991 14.485"/>
      <path d="M85.6579491 7.33417849C85.6579491 9.6214797 85.0858527 11.4179818 83.9416597 12.7236885 82.7974669 14.0340249 81.2103606 14.6868776 79.1803409 14.6868776 77.0857302 14.6868776 75.4755547 14.0479145 74.3452031 12.7607298 73.2102381 11.4781748 72.6473684 9.66315089 72.6473684 7.31565784 72.6473684 4.99594638 73.2102381 3.19944306 74.3452031 1.92614789 75.489396.64359298 77.1041838 0 79.1987956 0 81.2288153 0 82.8066948.657483766 83.9416597 1.96318919 85.0858527 3.25963488 85.6579491 5.05150834 85.6579491 7.33417849zM74.4005672 7.33417849C74.4005672 9.27421717 74.8065712 10.7419786 75.6185791 11.7420938 76.4305869 12.7329494 77.6163027 13.2237461 79.1803409 13.2237461 80.7397657 13.2237461 81.920868 12.7329494 82.7236479 11.7420938 83.5218145 10.7419786 83.923205 9.27421717 83.923205 7.33417849 83.923205 5.42192139 83.5218145 3.97267942 82.7236479 2.98182509 81.920868 1.98170984 80.7489924 1.48165222 79.1987956 1.48165222 77.6209161 1.48165222 76.4305869 1.98170984 75.6185791 2.98182509 74.8065712 3.98194034 74.4005672 5.43581218 74.4005672 7.33417849zM97.7006864 14.4822541L95.9290328 9.94469414 90.2634324 9.94469414 88.5286884 14.4822541 86.8677632 14.4822541 92.4595447.165789474 93.843649.165789474 99.398521 14.4822541 97.7006864 14.4822541zM95.4307553 8.46304192L93.7882848 4.03660591C93.5668281 3.48098633 93.3453714 2.79572216 93.1239147 1.98081345 92.9762769 2.61051564 92.773275 3.29577979 92.5149088 4.03660591L90.8539836 8.46304192 95.4307553 8.46304192zM112.62916 7.22383307C112.62916 9.5713261 111.992471 11.3678294 110.728323 12.613343 109.459561 13.8634865 107.632543 14.4839289 105.24727 14.4839289L101.334868 14.4839289 101.334868.223026316 105.671729.223026316C107.872454.223026316 109.58413.843468776 110.802142 2.07509159 112.020154 3.29745468 112.62916 5.01524552 112.62916 7.22383307zM110.875961 7.27939502C110.875961 5.41806882 110.414593 4.01513027 109.491857 3.07520684 108.56912 2.13991447 107.194243 1.66763723 105.376453 1.66763723L102.977339 1.66763723 102.977339 13.0578387 104.988904 13.0578387C106.945105 13.0578387 108.412255 12.5716718 109.399583 11.5947071 110.382297 10.6223734 110.875961 9.18239238 110.875961 7.27939502z"/>
    </g>
  </g>
</svg>
