<svg xmlns="http://www.w3.org/2000/svg" width="1280" height="640" viewBox="0 0 1280 640">
  <defs>
    <linearGradient id="password-generator-logo-a" x1="0%" x2="196.812%" y1="0%" y2="0%">
      <stop offset="0%" stop-color="#DC79FF"/>
      <stop offset="100%" stop-color="#2997FF"/>
    </linearGradient>
    <linearGradient id="password-generator-logo-b" x1="0%" x2="196.812%" y1="0%" y2="0%">
      <stop offset="0%" stop-color="#DC79FF"/>
      <stop offset="100%" stop-color="#2997FF"/>
    </linearGradient>
    <linearGradient id="password-generator-logo-c" x1="0%" x2="196.812%" y1="0%" y2="0%">
      <stop offset="0%" stop-color="#DC79FF"/>
      <stop offset="100%" stop-color="#2997FF"/>
    </linearGradient>
    <linearGradient id="password-generator-logo-d" x1="0%" x2="196.812%" y1="0%" y2="0%">
      <stop offset="0%" stop-color="#DC79FF"/>
      <stop offset="100%" stop-color="#2997FF"/>
    </linearGradient>
    <linearGradient id="password-generator-logo-e" x1="0%" x2="196.812%" y1="0%" y2="0%">
      <stop offset="0%" stop-color="#DC79FF"/>
      <stop offset="100%" stop-color="#2997FF"/>
    </linearGradient>
    <linearGradient id="password-generator-logo-f" x1="0%" x2="196.812%" y1="0%" y2="0%">
      <stop offset="0%" stop-color="#DC79FF"/>
      <stop offset="100%" stop-color="#2997FF"/>
    </linearGradient>
    <linearGradient id="password-generator-logo-g" x1="0%" x2="196.812%" y1="0%" y2="0%">
      <stop offset="0%" stop-color="#DC79FF"/>
      <stop offset="100%" stop-color="#2997FF"/>
    </linearGradient>
    <linearGradient id="password-generator-logo-h" x1="0%" x2="196.812%" y1="0%" y2="0%">
      <stop offset="0%" stop-color="#DC79FF"/>
      <stop offset="100%" stop-color="#2997FF"/>
    </linearGradient>
    <linearGradient id="password-generator-logo-i" x1="0%" x2="196.812%" y1="0%" y2="0%">
      <stop offset="0%" stop-color="#DC79FF"/>
      <stop offset="100%" stop-color="#2997FF"/>
    </linearGradient>
    <linearGradient id="password-generator-logo-j" x1="0%" x2="196.812%" y1="0%" y2="0%">
      <stop offset="0%" stop-color="#DC79FF"/>
      <stop offset="100%" stop-color="#2997FF"/>
    </linearGradient>
    <linearGradient id="password-generator-logo-k" x1="0%" x2="196.812%" y1="0%" y2="0%">
      <stop offset="0%" stop-color="#DC79FF"/>
      <stop offset="100%" stop-color="#2997FF"/>
    </linearGradient>
    <linearGradient id="password-generator-logo-l" x1="0%" x2="196.812%" y1="0%" y2="0%">
      <stop offset="0%" stop-color="#DC79FF"/>
      <stop offset="100%" stop-color="#2997FF"/>
    </linearGradient>
    <linearGradient id="password-generator-logo-m" x1="0%" x2="196.812%" y1="0%" y2="0%">
      <stop offset="0%" stop-color="#DC79FF"/>
      <stop offset="100%" stop-color="#2997FF"/>
    </linearGradient>
    <linearGradient id="password-generator-logo-n" x1="0%" x2="196.812%" y1="0%" y2="0%">
      <stop offset="0%" stop-color="#DC79FF"/>
      <stop offset="100%" stop-color="#2997FF"/>
    </linearGradient>
    <linearGradient id="password-generator-logo-o" x1="0%" x2="196.812%" y1="0%" y2="0%">
      <stop offset="0%" stop-color="#DC79FF"/>
      <stop offset="100%" stop-color="#2997FF"/>
    </linearGradient>
    <linearGradient id="password-generator-logo-p" x1="0%" x2="196.812%" y1="0%" y2="0%">
      <stop offset="0%" stop-color="#DC79FF"/>
      <stop offset="100%" stop-color="#2997FF"/>
    </linearGradient>
    <linearGradient id="password-generator-logo-q" x1="0%" x2="196.812%" y1="0%" y2="0%">
      <stop offset="0%" stop-color="#DC79FF"/>
      <stop offset="100%" stop-color="#2997FF"/>
    </linearGradient>
    <linearGradient id="password-generator-logo-r" x1="0%" x2="196.812%" y1="0%" y2="0%">
      <stop offset="0%" stop-color="#DC79FF"/>
      <stop offset="100%" stop-color="#2997FF"/>
    </linearGradient>
    <linearGradient id="password-generator-logo-s" x1="0%" x2="196.812%" y1="0%" y2="0%">
      <stop offset="0%" stop-color="#DC79FF"/>
      <stop offset="100%" stop-color="#2997FF"/>
    </linearGradient>
    <linearGradient id="password-generator-logo-t" x1="0%" x2="196.812%" y1="0%" y2="0%">
      <stop offset="0%" stop-color="#DC79FF"/>
      <stop offset="100%" stop-color="#2997FF"/>
    </linearGradient>
  </defs>
  <g fill="none" fill-rule="evenodd">
    <g transform="translate(266.931 106.667)">
      <path fill="url(#password-generator-logo-a)" d="M315.327647,38.7019949 C315.327647,25.5420504 313.862416,12.6308333 311.008833,0 C227.454491,39.9004091 82.274526,109.096392 0,147.884311 L4.61728638,162.681335 L304.085165,100.702971 C311.415842,80.9042637 315.327647,60.1287362 315.327647,38.7019949" transform="matrix(-1 0 0 1 315.328 0)"/>
      <path fill="url(#password-generator-logo-a)" d="M744.787671,38.7019949 C744.787671,25.5420504 743.32244,12.6308333 740.468857,0 C656.914515,39.9004091 511.73455,109.096392 429.460024,147.884311 L434.07731,162.681335 L733.545189,100.702971 C740.875866,80.9042637 744.787671,60.1287362 744.787671,38.7019949"/>
      <path fill="url(#password-generator-logo-b)" d="M20.3883493,129.3703 C38.3962184,162.898763 66.4617221,193.044533 102.151853,218.016771 L301.427783,189.426679 L307.401765,170.283708 L20.3883493,129.3703 Z"/>
      <path fill="url(#password-generator-logo-c)" d="M130.489958,233.781119 C157.293735,249.423816 187.444027,262.420957 220.11325,272.198208 L328.553906,207.257725 L303.373641,195.341418 L130.489958,233.781119 Z"/>
      <path fill="url(#password-generator-logo-b)" d="M640.540107,218.015415 C676.225716,193.043176 704.295742,162.897407 722.299089,129.368943 L435.285674,170.282351 L441.259655,189.425322 L640.540107,218.015415 Z"/>
      <path fill="url(#password-generator-logo-c)" d="M522.577354,272.196851 C555.251099,262.4196 585.392347,249.422459 612.200646,233.779762 L439.31244,195.340062 L414.136698,207.256369 L522.577354,272.196851 Z"/>
      <path fill="url(#password-generator-logo-d)" d="M284.342467,310.062669 C292.170599,315.62512 300.32886,320.482089 308.722282,324.538608 L350.485886,219.408289 L341.902527,215.342725 C330.88986,233.465 322.630359,247.056705 317.124026,256.117843 C309.839235,268.105582 298.912049,286.087191 284.342467,310.062669 Z"/>
      <path fill="url(#password-generator-logo-e)" d="M317.161379,328.35861 C327.065254,332.460352 337.344482,335.48126 347.858871,337.367067 L361.873534,235.633008 L352.896733,221.876117 L317.161379,328.35861 Z"/>
      <path fill="url(#password-generator-logo-d)" d="M433.968323,324.539513 C442.361744,320.482994 450.520005,315.626025 458.348137,310.063574 L400.788078,215.343629 L392.204719,219.404671 L433.968323,324.539513 Z"/>
      <path fill="url(#password-generator-logo-f)" d="M394.829924,337.36571 C405.344313,335.479904 415.623541,332.458996 425.527417,328.357253 L389.792062,221.879283 L380.815261,235.636173 L394.829924,337.36571 Z"/>
      <path fill="url(#password-generator-logo-g)" d="M365.544299,241.254249 L357.906104,339.157905 C361.677717,339.488034 365.499076,339.628226 369.320434,339.628226 C369.99426,339.628226 370.668085,339.587525 371.346433,339.57848 C372.020258,339.587525 372.694083,339.628226 373.372431,339.628226 C377.193789,339.628226 381.010626,339.488034 384.782239,339.157905 L377.144044,241.254249 L371.346433,250.140603 L365.544299,241.254249 Z"/>
      <polygon fill="url(#password-generator-logo-h)" points="399.588 199.631 376.529 193.187 413.956 183.455"/>
      <polygon fill="url(#password-generator-logo-i)" points="343.105 199.631 328.737 183.455 366.159 193.187"/>
      <polygon fill="url(#password-generator-logo-h)" points="399.588 199.631 413.956 183.455 376.529 193.187"/>
      <polygon fill="url(#password-generator-logo-h)" points="343.103 199.631 366.162 193.187 328.735 183.455"/>
    </g>
    <g fill-rule="nonzero" transform="translate(344.361 483.389)">
      <path fill="url(#password-generator-logo-j)" d="M4.57094843,24.5352379 L4.57094843,4.90704758 L20.3003886,4.90704758 C23.4821272,4.90704758 26.0588874,5.71368554 28.030669,7.32696145 C30.0024507,8.94023737 30.9883416,11.4049645 30.9883416,14.7211427 C30.9883416,18.037321 30.0024507,20.5020481 28.030669,22.115324 C26.0588874,23.7285999 23.4821272,24.5352379 20.3003886,24.5352379 L4.57094843,24.5352379 Z M-4.24556105e-13,1.00829745 L-4.24556105e-13,49.003256 L4.57094843,49.003256 L4.57094843,28.433988 L21.3086861,28.433988 C23.4597206,28.433988 25.4090957,28.1314988 27.1568113,27.5265203 C28.9045268,26.9215419 30.4057697,26.0252775 31.6605399,24.8377271 C32.91531,23.6501768 33.8787942,22.2049505 34.5509925,20.5020481 C35.2231908,18.7991457 35.55929,16.8721773 35.55929,14.7211427 C35.55929,12.5701082 35.2231908,10.6431397 34.5509925,8.94023737 C33.8787942,7.23733501 32.91531,5.79210867 31.6605399,4.60455834 C30.4057697,3.41700802 28.9045268,2.52074362 27.1568113,1.91576515 C25.4090957,1.31078668 23.4597206,1.00829745 21.3086861,1.00829745 L-4.24556105e-13,1.00829745 Z"/>
      <path fill="url(#password-generator-logo-k)" d="M41.1385359,24.9385569 L45.3733851,24.9385569 C45.4630116,22.115324 46.359276,20.0651192 48.0621783,18.7879424 C49.7650807,17.5107657 51.9609285,16.8721773 54.6497217,16.8721773 C55.9044918,16.8721773 57.0808388,16.973007 58.1787627,17.1746665 C59.2766866,17.376326 60.2401709,17.7460351 61.0692154,18.2837937 C61.89826,18.8215524 62.5480517,19.5497672 63.0185905,20.4684382 C63.4891293,21.3871092 63.7243987,22.5634562 63.7243987,23.9974793 C63.7243987,24.9385569 63.6011623,25.7003816 63.3546896,26.2829535 C63.1082169,26.8655253 62.7609145,27.3248608 62.3127823,27.66096 C61.8646501,27.9970591 61.3044848,28.2323285 60.6322865,28.3667682 C59.9600882,28.5012079 59.1758569,28.6132409 58.2795925,28.7028673 C55.9941183,28.9717467 53.742254,29.2518293 51.5239996,29.5431152 C49.3057452,29.8344011 47.3115569,30.3385499 45.5414347,31.0555614 C43.7713125,31.7725729 42.3484928,32.8144803 41.2729755,34.1812835 C40.1974583,35.5480867 39.6596996,37.4414452 39.6596996,39.8613591 C39.6596996,41.6090747 39.9621888,43.1215208 40.5671673,44.3986976 C41.1721458,45.6758744 42.0011904,46.7289851 43.054301,47.5580296 C44.1074117,48.3870742 45.3397752,48.9920527 46.7513917,49.372965 C48.1630081,49.7538774 49.6754543,49.9443336 51.2887302,49.9443336 C52.9916325,49.9443336 54.4592655,49.7874873 55.691629,49.4737948 C56.9239926,49.1601022 58.0219165,48.71197 58.9854007,48.1293982 C59.9488849,47.5468263 60.8227427,46.8186115 61.6069741,45.9447537 C62.3912054,45.0708959 63.1642334,44.0738018 63.9260582,42.9534713 L64.0604978,42.9534713 C64.0604978,43.8497357 64.1165144,44.6675769 64.2285474,45.4069951 C64.3405805,46.1464132 64.5758499,46.7850016 64.9343556,47.3227602 C65.2928614,47.8605189 65.7970101,48.2750411 66.4468018,48.5663271 C67.0965935,48.857613 67.959248,49.003256 69.0347653,49.003256 C69.6173371,49.003256 70.0990792,48.9808494 70.4799916,48.9360361 C70.860904,48.8912229 71.2978329,48.8240031 71.7907783,48.7343766 L71.7907783,45.1717257 C71.3874593,45.3509785 70.9393271,45.440605 70.4463817,45.440605 C68.7882925,45.440605 67.959248,44.5891538 67.959248,42.8862514 L67.959248,24.4680181 C67.959248,22.1377306 67.5783356,20.2443721 66.8165109,18.7879424 C66.0546861,17.3315128 65.0687953,16.199979 63.8588384,15.393341 C62.6488814,14.5867031 61.2820782,14.0377411 59.7584287,13.7464552 C58.2347793,13.4551693 56.7111298,13.3095263 55.1874803,13.3095263 C53.1708854,13.3095263 51.3335434,13.5335924 49.6754543,13.9817246 C48.0173651,14.4298568 46.5721388,15.1244617 45.3397752,16.0655393 C44.1074117,17.006617 43.1327242,18.2165739 42.4157126,19.6954101 C41.6987011,21.1742464 41.2729755,22.921962 41.1385359,24.9385569 Z M63.7243987,30.0472639 L63.7243987,35.55929 C63.7243987,37.2621923 63.3995029,38.7858418 62.7497112,40.1302384 C62.0999195,41.474635 61.2260617,42.6173721 60.1281378,43.5584497 C59.0302139,44.4995274 57.7418338,45.2165389 56.2629976,45.7094843 C54.7841613,46.2024297 53.2381052,46.4489024 51.6248293,46.4489024 C50.6389385,46.4489024 49.6754543,46.2920562 48.7343766,45.9783636 C47.793299,45.6646711 46.9642545,45.2053356 46.2472429,44.6003571 C45.5302314,43.9953786 44.9588629,43.2783671 44.5331373,42.4493226 C44.1074117,41.620278 43.8945489,40.6679971 43.8945489,39.5924798 C43.8945489,37.8895774 44.3986976,36.5787907 45.4069951,35.6601197 C46.4152925,34.7414487 47.7036726,34.0356405 49.2721353,33.5426951 C50.840598,33.0497497 52.5771102,32.6800406 54.4816721,32.4335679 C56.3862339,32.1870952 58.2347793,31.9070126 60.0273081,31.59332 C60.6098799,31.5036936 61.2820782,31.3468473 62.043903,31.1227812 C62.8057277,30.8987151 63.3210797,30.5402094 63.589959,30.0472639 L63.7243987,30.0472639 Z"/>
      <path fill="url(#password-generator-logo-l)" d="M97.199874 24.4680181L101.434723 24.4680181C101.345097 22.5858628 100.964184 20.9501803 100.291986 19.5609705 99.6197878 18.1717607 98.7123201 17.006617 97.569583 16.0655393 96.4268459 15.1244617 95.1048559 14.4298568 93.6036131 13.9817246 92.1023702 13.5335924 90.477891 13.3095263 88.7301754 13.3095263 87.2065259 13.3095263 85.6716731 13.4887792 84.1256171 13.8472849 82.579561 14.2057907 81.1791478 14.765956 79.9243777 15.5277807 78.6696075 16.2896054 77.6501068 17.2979029 76.8658754 18.552673 76.0816441 19.8074432 75.6895284 21.3086861 75.6895284 23.0564016 75.6895284 24.5352379 75.9360011 25.7788047 76.4289465 26.7871022 76.921892 27.7953996 77.6052936 28.6468508 78.4791513 29.3414557 79.3530091 30.0360606 80.3725099 30.6186325 81.5376536 31.0891713 82.7027973 31.5597101 83.9799741 31.9742324 85.3691839 32.3327382L90.8139901 33.5426951C91.7550677 33.7667612 92.6849421 34.0356405 93.6036131 34.3493331 94.5222841 34.6630256 95.3401253 35.0551413 96.0571369 35.5256801 96.7741484 35.9962189 97.3455169 36.5787907 97.7712425 37.2733957 98.1969681 37.9680006 98.4098309 38.830655 98.4098309 39.8613591 98.4098309 41.071316 98.1073417 42.0908168 97.5023632 42.9198614 96.8973847 43.7489059 96.1243567 44.4323075 95.1832791 44.9700662 94.2422014 45.5078248 93.2227007 45.8887372 92.1247768 46.1128033 91.0268529 46.3368694 89.9625389 46.4489024 88.9318349 46.4489024 86.108602 46.4489024 83.7447047 45.7206876 81.8401428 44.264258 79.935581 42.8078283 78.8936736 40.6455904 78.7144208 37.7775444L74.4795715 37.7775444C74.8380772 42.0348003 76.2833036 45.1269124 78.8152505 47.0538809 81.3471974 48.9808494 84.6521724 49.9443336 88.7301754 49.9443336 90.3434513 49.9443336 91.9791338 49.7650807 93.637223 49.4065749 95.2953121 49.0480692 96.7853517 48.454294 98.1073417 47.6252494 99.4293317 46.7962049 100.516052 45.7206876 101.367503 44.3986976 102.218955 43.0767076 102.64468 41.474635 102.64468 39.5924798 102.64468 38.0688303 102.353394 36.7468403 101.770822 35.6265098 101.188251 34.5061793 100.437629 33.5651017 99.5189581 32.803277 98.6002871 32.0414522 97.5471764 31.4252705 96.3596261 30.9547316 95.1720758 30.4841928 93.9733221 30.159297 92.7633652 29.9800441L87.1168995 28.7028673C86.399888 28.5236145 85.6156566 28.2883451 84.7642054 27.9970591 83.9127543 27.7057732 83.1285229 27.3360641 82.4115114 26.8879319 81.6944999 26.4397997 81.1007247 25.8908378 80.6301859 25.2410461 80.1596471 24.5912544 79.9243777 23.7958198 79.9243777 22.8547421 79.9243777 21.7344117 80.1708504 20.793334 80.6637958 20.0315093 81.1567412 19.2696846 81.8065329 18.6535028 82.6131709 18.182964 83.4198088 17.7124252 84.3048699 17.376326 85.2683542 17.1746665 86.2318384 16.973007 87.1841193 16.8721773 88.1251969 16.8721773 89.3351539 16.8721773 90.477891 17.0178203 91.5534083 17.3091062 92.6289255 17.6003921 93.5812065 18.0597276 94.410251 18.6871127 95.2392956 19.3144978 95.9002906 20.1099324 96.393236 21.0734167 96.8861814 22.0369009 97.1550607 23.1684347 97.199874 24.4680181zM129.532612 24.4680181L133.767461 24.4680181C133.677835 22.5858628 133.296923 20.9501803 132.624724 19.5609705 131.952526 18.1717607 131.045058 17.006617 129.902321 16.0655393 128.759584 15.1244617 127.437594 14.4298568 125.936351 13.9817246 124.435108 13.5335924 122.810629 13.3095263 121.062914 13.3095263 119.539264 13.3095263 118.004411 13.4887792 116.458355 13.8472849 114.912299 14.2057907 113.511886 14.765956 112.257116 15.5277807 111.002346 16.2896054 109.982845 17.2979029 109.198614 18.552673 108.414382 19.8074432 108.022267 21.3086861 108.022267 23.0564016 108.022267 24.5352379 108.268739 25.7788047 108.761685 26.7871022 109.25463 27.7953996 109.938032 28.6468508 110.81189 29.3414557 111.685747 30.0360606 112.705248 30.6186325 113.870392 31.0891713 115.035535 31.5597101 116.312712 31.9742324 117.701922 32.3327382L123.146728 33.5426951C124.087806 33.7667612 125.01768 34.0356405 125.936351 34.3493331 126.855022 34.6630256 127.672863 35.0551413 128.389875 35.5256801 129.106887 35.9962189 129.678255 36.5787907 130.103981 37.2733957 130.529706 37.9680006 130.742569 38.830655 130.742569 39.8613591 130.742569 41.071316 130.44008 42.0908168 129.835101 42.9198614 129.230123 43.7489059 128.457095 44.4323075 127.516017 44.9700662 126.57494 45.5078248 125.555439 45.8887372 124.457515 46.1128033 123.359591 46.3368694 122.295277 46.4489024 121.264573 46.4489024 118.44134 46.4489024 116.077443 45.7206876 114.172881 44.264258 112.268319 42.8078283 111.226412 40.6455904 111.047159 37.7775444L106.81231 37.7775444C107.170815 42.0348003 108.616042 45.1269124 111.147989 47.0538809 113.679936 48.9808494 116.984911 49.9443336 121.062914 49.9443336 122.676189 49.9443336 124.311872 49.7650807 125.969961 49.4065749 127.62805 49.0480692 129.11809 48.454294 130.44008 47.6252494 131.76207 46.7962049 132.84879 45.7206876 133.700242 44.3986976 134.551693 43.0767076 134.977418 41.474635 134.977418 39.5924798 134.977418 38.0688303 134.686132 36.7468403 134.103561 35.6265098 133.520989 34.5061793 132.770367 33.5651017 131.851696 32.803277 130.933025 32.0414522 129.879915 31.4252705 128.692364 30.9547316 127.504814 30.4841928 126.30606 30.159297 125.096103 29.9800441L119.449638 28.7028673C118.732626 28.5236145 117.948395 28.2883451 117.096944 27.9970591 116.245492 27.7057732 115.461261 27.3360641 114.74425 26.8879319 114.027238 26.4397997 113.433463 25.8908378 112.962924 25.2410461 112.492385 24.5912544 112.257116 23.7958198 112.257116 22.8547421 112.257116 21.7344117 112.503589 20.793334 112.996534 20.0315093 113.489479 19.2696846 114.139271 18.6535028 114.945909 18.182964 115.752547 17.7124252 116.637608 17.376326 117.601092 17.1746665 118.564577 16.973007 119.516857 16.8721773 120.457935 16.8721773 121.667892 16.8721773 122.810629 17.0178203 123.886146 17.3091062 124.961664 17.6003921 125.913945 18.0597276 126.742989 18.6871127 127.572034 19.3144978 128.233029 20.1099324 128.725974 21.0734167 129.21892 22.0369009 129.487799 23.1684347 129.532612 24.4680181z"/>
      <polygon fill="url(#password-generator-logo-m)" points="137.599 14.318 148.757 49.003 153.396 49.003 161.865 19.83 162 19.83 170.537 49.003 175.175 49.003 186.333 14.318 181.83 14.318 172.957 44.029 172.822 44.029 164.352 14.318 159.58 14.318 151.11 44.029 150.976 44.029 142.103 14.318"/>
      <path fill="url(#password-generator-logo-n)" d="M205.55824,16.8721773 C207.574835,16.8721773 209.344957,17.2979029 210.868606,18.1493541 C212.392256,19.0008052 213.658229,20.1211357 214.666527,21.5103456 C215.674824,22.8995554 216.436649,24.4792214 216.952001,26.2493436 C217.467353,28.0194657 217.725029,29.8231978 217.725029,31.6605399 C217.725029,33.4978819 217.467353,35.301614 216.952001,37.0717362 C216.436649,38.8418583 215.674824,40.4215243 214.666527,41.8107342 C213.658229,43.199944 212.392256,44.3202745 210.868606,45.1717257 C209.344957,46.0231768 207.574835,46.4489024 205.55824,46.4489024 C203.541645,46.4489024 201.771523,46.0231768 200.247873,45.1717257 C198.724224,44.3202745 197.45825,43.199944 196.449953,41.8107342 C195.441655,40.4215243 194.679831,38.8418583 194.164479,37.0717362 C193.649126,35.301614 193.39145,33.4978819 193.39145,31.6605399 C193.39145,29.8231978 193.649126,28.0194657 194.164479,26.2493436 C194.679831,24.4792214 195.441655,22.8995554 196.449953,21.5103456 C197.45825,20.1211357 198.724224,19.0008052 200.247873,18.1493541 C201.771523,17.2979029 203.541645,16.8721773 205.55824,16.8721773 Z M205.55824,13.3095263 C202.91426,13.3095263 200.572769,13.8024717 198.533767,14.7883626 C196.494766,15.7742534 194.78066,17.0962434 193.39145,18.7543325 C192.002241,20.4124217 190.94913,22.3505934 190.232118,24.5688478 C189.515107,26.7871022 189.156601,29.1509995 189.156601,31.6605399 C189.156601,34.1700802 189.515107,36.5339775 190.232118,38.7522319 C190.94913,40.9704863 192.002241,42.9086581 193.39145,44.5667472 C194.78066,46.2248363 196.494766,47.535623 198.533767,48.4991072 C200.572769,49.4625915 202.91426,49.9443336 205.55824,49.9443336 C208.20222,49.9443336 210.54371,49.4625915 212.582712,48.4991072 C214.621713,47.535623 216.335819,46.2248363 217.725029,44.5667472 C219.114239,42.9086581 220.167349,40.9704863 220.884361,38.7522319 C221.601372,36.5339775 221.959878,34.1700802 221.959878,31.6605399 C221.959878,29.1509995 221.601372,26.7871022 220.884361,24.5688478 C220.167349,22.3505934 219.114239,20.4124217 217.725029,18.7543325 C216.335819,17.0962434 214.621713,15.7742534 212.582712,14.7883626 C210.54371,13.8024717 208.20222,13.3095263 205.55824,13.3095263 Z"/>
      <path fill="url(#password-generator-logo-o)" d="M228.278542,14.3178238 L228.278542,49.003256 L232.513391,49.003256 L232.513391,30.5178028 C232.513391,28.6804607 232.827084,26.9887617 233.454469,25.4427056 C234.081854,23.8966495 234.966915,22.5634562 236.109652,21.4431257 C237.252389,20.3227952 238.607989,19.4601407 240.176452,18.8551623 C241.744915,18.2501838 243.49263,17.9925078 245.419599,18.0821342 L245.419599,13.8472849 C242.282673,13.7128453 239.582677,14.4074502 237.319609,15.9310997 C235.056542,17.4547492 233.387249,19.6281903 232.311732,22.4514232 L232.177292,22.4514232 L232.177292,14.3178238 L228.278542,14.3178238 Z"/>
      <path fill="url(#password-generator-logo-p)" d="M278.760634,49.003256 L278.760634,1.00829745 L274.525785,1.00829745 L274.525785,20.9053671 L274.391345,20.9053671 C273.943213,19.6505969 273.304625,18.552673 272.47558,17.6115954 C271.646536,16.6705178 270.694255,15.8750831 269.618738,15.2252915 C268.54322,14.5754998 267.38928,14.0937577 266.156916,13.7800651 C264.924553,13.4663726 263.658579,13.3095263 262.358996,13.3095263 C259.715016,13.3095263 257.418338,13.8024717 255.468963,14.7883626 C253.519588,15.7742534 251.895109,17.1074467 250.595526,18.7879424 C249.295942,20.4684382 248.332458,22.4178133 247.705073,24.6360676 C247.077688,26.854322 246.763995,29.1958128 246.763995,31.6605399 C246.763995,34.125267 247.077688,36.4667577 247.705073,38.6850121 C248.332458,40.9032665 249.295942,42.8526415 250.595526,44.5331373 C251.895109,46.213633 253.519588,47.535623 255.468963,48.4991072 C257.418338,49.4625915 259.715016,49.9443336 262.358996,49.9443336 C263.613766,49.9443336 264.87974,49.7650807 266.156916,49.4065749 C267.434093,49.0480692 268.632847,48.5439205 269.753177,47.8941288 C270.873508,47.2443371 271.870602,46.4489024 272.74446,45.5078248 C273.618317,44.5667472 274.279312,43.5360431 274.727445,42.4157126 L274.861884,42.4157126 L274.861884,49.003256 L278.760634,49.003256 Z M250.998845,31.6605399 C250.998845,29.8680111 251.211707,28.0866856 251.637433,26.3165634 C252.063159,24.5464412 252.735357,22.9667752 253.654028,21.5775654 C254.572699,20.1883556 255.749046,19.0568218 257.183069,18.182964 C258.617092,17.3091062 260.342401,16.8721773 262.358996,16.8721773 C264.599657,16.8721773 266.493015,17.3091062 268.039072,18.182964 C269.585128,19.0568218 270.839898,20.1883556 271.803382,21.5775654 C272.766866,22.9667752 273.461471,24.5464412 273.887197,26.3165634 C274.312922,28.0866856 274.525785,29.8680111 274.525785,31.6605399 C274.525785,33.4530687 274.312922,35.2343941 273.887197,37.0045163 C273.461471,38.7746385 272.766866,40.3543045 271.803382,41.7435143 C270.839898,43.1327242 269.585128,44.264258 268.039072,45.1381157 C266.493015,46.0119735 264.599657,46.4489024 262.358996,46.4489024 C260.342401,46.4489024 258.617092,46.0119735 257.183069,45.1381157 C255.749046,44.264258 254.572699,43.1327242 253.654028,41.7435143 C252.735357,40.3543045 252.063159,38.7746385 251.637433,37.0045163 C251.211707,35.2343941 250.998845,33.4530687 250.998845,31.6605399 Z"/>
      <path fill="url(#password-generator-logo-q)" d="M347.324861,49.003256 L347.324861,24.6024577 L326.957252,24.6024577 L326.957252,28.5012079 L343.291671,28.5012079 C343.336484,31.0555614 343.000385,33.4082554 342.283374,35.55929 C341.566362,37.7103245 340.490845,39.5700732 339.056822,41.1385359 C337.622799,42.7069986 335.86388,43.9281588 333.780065,44.8020166 C331.69625,45.6758744 329.332353,46.1128033 326.688373,46.1128033 C323.506634,46.1128033 320.773028,45.5078248 318.487554,44.2978679 C316.20208,43.0879109 314.331128,41.4858383 312.874698,39.49165 C311.418268,37.4974618 310.342751,35.2343941 309.648146,32.7024472 C308.953541,30.1705003 308.606239,27.6049435 308.606239,25.0057767 C308.606239,22.3617967 308.953541,19.7850366 309.648146,17.2754963 C310.342751,14.765956 311.418268,12.5140917 312.874698,10.5199034 C314.331128,8.52571509 316.20208,6.92364247 318.487554,5.71368554 C320.773028,4.5037286 323.506634,3.89875013 326.688373,3.89875013 C328.973847,3.89875013 331.035255,4.2684592 332.872597,5.00787732 C334.709939,5.74729545 336.289605,6.69957638 337.611595,7.86472009 C338.933585,9.02986381 339.986696,10.3182439 340.770927,11.7298603 C341.555159,13.1414767 342.014494,14.5418899 342.148934,15.9310997 L346.719882,15.9310997 C346.27175,13.2871197 345.442706,10.9792389 344.232749,9.0074572 C343.022792,7.03567552 341.543955,5.37758639 339.79624,4.03318979 C338.048524,2.68879319 336.054336,1.68049575 333.813675,1.00829745 C331.573014,0.336099149 329.197913,-4.24556105e-13 326.688373,-4.24556105e-13 C322.924063,-4.24556105e-13 319.619088,0.683401603 316.773448,2.05020481 C313.927809,3.41700802 311.563911,5.25435003 309.681756,7.56223086 C307.799601,9.87011168 306.387984,12.525295 305.446907,15.5277807 C304.505829,18.5302664 304.03529,21.6895984 304.03529,25.0057767 C304.03529,28.321955 304.505829,31.481287 305.446907,34.4837727 C306.387984,37.4862584 307.799601,40.1302384 309.681756,42.4157126 C311.563911,44.7011869 313.927809,46.5273256 316.773448,47.8941288 C319.619088,49.260932 322.924063,49.9443336 326.688373,49.9443336 C328.436089,49.9443336 330.127788,49.7650807 331.76347,49.4065749 C333.399153,49.0480692 334.934006,48.4767006 336.368029,47.6924693 C337.802052,46.9082379 339.112838,45.8999405 340.300389,44.6675769 C341.487939,43.4352134 342.485033,41.9675804 343.291671,40.2646781 L343.426111,40.2646781 L344.031089,49.003256 L347.324861,49.003256 Z"/>
      <path fill="url(#password-generator-logo-r)" d="M380.262577,29.240626 L357.811154,29.240626 C357.990407,27.6721633 358.360116,26.1373105 358.920281,24.6360676 C359.480447,23.1348248 360.231068,21.8128348 361.172146,20.6700977 C362.113223,19.5273606 363.255961,18.6086896 364.600357,17.9140847 C365.944754,17.2194797 367.49081,16.8721773 369.238525,16.8721773 C370.941428,16.8721773 372.465077,17.2194797 373.809474,17.9140847 C375.15387,18.6086896 376.296607,19.5273606 377.237685,20.6700977 C378.178763,21.8128348 378.906978,23.1236215 379.42233,24.6024577 C379.937682,26.081294 380.217764,27.6273501 380.262577,29.240626 Z M357.811154,32.803277 L384.497427,32.803277 C384.587053,30.3833631 384.362987,27.9970591 383.825228,25.6443651 C383.28747,23.291671 382.402409,21.2078563 381.170045,19.3929209 C379.937682,17.5779855 378.335609,16.1103526 376.363827,14.9900221 C374.392046,13.8696916 372.016945,13.3095263 369.238525,13.3095263 C366.504919,13.3095263 364.141022,13.8360816 362.146833,14.8891923 C360.152645,15.942303 358.528166,17.3315128 357.273396,19.0568218 C356.018625,20.7821307 355.088751,22.7427091 354.483773,24.9385569 C353.878794,27.1344046 353.576305,29.3750656 353.576305,31.6605399 C353.576305,34.125267 353.878794,36.4667577 354.483773,38.6850121 C355.088751,40.9032665 356.018625,42.8526415 357.273396,44.5331373 C358.528166,46.213633 360.152645,47.535623 362.146833,48.4991072 C364.141022,49.4625915 366.504919,49.9443336 369.238525,49.9443336 C373.630221,49.9443336 377.024822,48.8688163 379.42233,46.7177817 C381.819837,44.5667472 383.466723,41.5194482 384.362987,37.5758849 L380.128138,37.5758849 C379.45594,40.2646781 378.245983,42.4157126 376.498267,44.0289886 C374.750551,45.6422645 372.330638,46.4489024 369.238525,46.4489024 C367.22193,46.4489024 365.496622,46.0231768 364.062598,45.1717257 C362.628575,44.3202745 361.441025,43.2447572 360.499947,41.9451738 C359.55887,40.6455904 358.875468,39.1779575 358.449743,37.542275 C358.024017,35.9065924 357.811154,34.3269264 357.811154,32.803277 Z"/>
      <path fill="url(#password-generator-logo-s)" d="M390.143892,14.3178238 L390.143892,49.003256 L394.378742,49.003256 L394.378742,28.7700872 C394.423555,27.0671848 394.703638,25.4875188 395.21899,24.0310892 C395.734342,22.5746595 396.451353,21.3198894 397.370024,20.2667787 C398.288695,19.213668 399.409026,18.3846235 400.731016,17.779645 C402.053006,17.1746665 403.565452,16.8721773 405.268354,16.8721773 C406.971257,16.8721773 408.394076,17.1410566 409.536813,17.6788153 C410.67955,18.2165739 411.587018,18.955992 412.259216,19.8970696 C412.931415,20.8381473 413.401954,21.9472744 413.670833,23.2244512 C413.939712,24.501628 414.074152,25.8796345 414.074152,27.3584707 L414.074152,49.003256 L418.309001,49.003256 L418.309001,26.6862725 C418.309001,24.6248643 418.107342,22.7651157 417.704023,21.1070266 C417.300704,19.4489374 416.606099,18.0485243 415.620208,16.9057872 C414.634317,15.7630501 413.32353,14.877989 411.687848,14.2506039 C410.052165,13.6232188 408.024367,13.3095263 405.604453,13.3095263 C403.139726,13.3095263 400.876659,13.9481147 398.81525,15.2252915 C396.753842,16.5024682 395.319819,18.1941673 394.513181,20.3003886 L394.378742,20.3003886 L394.378742,14.3178238 L390.143892,14.3178238 Z"/>
      <path fill="url(#password-generator-logo-r)" d="M451.246718,29.240626 L428.795295,29.240626 C428.974547,27.6721633 429.344257,26.1373105 429.904422,24.6360676 C430.464587,23.1348248 431.215208,21.8128348 432.156286,20.6700977 C433.097364,19.5273606 434.240101,18.6086896 435.584497,17.9140847 C436.928894,17.2194797 438.47495,16.8721773 440.222666,16.8721773 C441.925568,16.8721773 443.449218,17.2194797 444.793614,17.9140847 C446.138011,18.6086896 447.280748,19.5273606 448.221825,20.6700977 C449.162903,21.8128348 449.891118,23.1236215 450.40647,24.6024577 C450.921822,26.081294 451.201905,27.6273501 451.246718,29.240626 Z M428.795295,32.803277 L455.481567,32.803277 C455.571194,30.3833631 455.347127,27.9970591 454.809369,25.6443651 C454.27161,23.291671 453.386549,21.2078563 452.154185,19.3929209 C450.921822,17.5779855 449.319749,16.1103526 447.347968,14.9900221 C445.376186,13.8696916 443.001085,13.3095263 440.222666,13.3095263 C437.489059,13.3095263 435.125162,13.8360816 433.130974,14.8891923 C431.136785,15.942303 429.512306,17.3315128 428.257536,19.0568218 C427.002766,20.7821307 426.072892,22.7427091 425.467913,24.9385569 C424.862935,27.1344046 424.560445,29.3750656 424.560445,31.6605399 C424.560445,34.125267 424.862935,36.4667577 425.467913,38.6850121 C426.072892,40.9032665 427.002766,42.8526415 428.257536,44.5331373 C429.512306,46.213633 431.136785,47.535623 433.130974,48.4991072 C435.125162,49.4625915 437.489059,49.9443336 440.222666,49.9443336 C444.614361,49.9443336 448.008963,48.8688163 450.40647,46.7177817 C452.803977,44.5667472 454.450863,41.5194482 455.347127,37.5758849 L451.112278,37.5758849 C450.44008,40.2646781 449.230123,42.4157126 447.482407,44.0289886 C445.734692,45.6422645 443.314778,46.4489024 440.222666,46.4489024 C438.206071,46.4489024 436.480762,46.0231768 435.046739,45.1717257 C433.612716,44.3202745 432.425165,43.2447572 431.484088,41.9451738 C430.54301,40.6455904 429.859609,39.1779575 429.433883,37.542275 C429.008157,35.9065924 428.795295,34.3269264 428.795295,32.803277 Z"/>
      <path fill="url(#password-generator-logo-o)" d="M461.195253,14.3178238 L461.195253,49.003256 L465.430102,49.003256 L465.430102,30.5178028 C465.430102,28.6804607 465.743794,26.9887617 466.371179,25.4427056 C466.998565,23.8966495 467.883626,22.5634562 469.026363,21.4431257 C470.1691,20.3227952 471.5247,19.4601407 473.093162,18.8551623 C474.661625,18.2501838 476.409341,17.9925078 478.336309,18.0821342 L478.336309,13.8472849 C475.199384,13.7128453 472.499387,14.4074502 470.23632,15.9310997 C467.973252,17.4547492 466.30396,19.6281903 465.228442,22.4514232 L465.094003,22.4514232 L465.094003,14.3178238 L461.195253,14.3178238 Z"/>
      <path fill="url(#password-generator-logo-k)" d="M481.96618,24.9385569 L486.201029,24.9385569 C486.290656,22.115324 487.18692,20.0651192 488.889822,18.7879424 C490.592725,17.5107657 492.788573,16.8721773 495.477366,16.8721773 C496.732136,16.8721773 497.908483,16.973007 499.006407,17.1746665 C500.104331,17.376326 501.067815,17.7460351 501.89686,18.2837937 C502.725904,18.8215524 503.375696,19.5497672 503.846235,20.4684382 C504.316773,21.3871092 504.552043,22.5634562 504.552043,23.9974793 C504.552043,24.9385569 504.428806,25.7003816 504.182334,26.2829535 C503.935861,26.8655253 503.588559,27.3248608 503.140426,27.66096 C502.692294,27.9970591 502.132129,28.2323285 501.459931,28.3667682 C500.787732,28.5012079 500.003501,28.6132409 499.107237,28.7028673 C496.821762,28.9717467 494.569898,29.2518293 492.351644,29.5431152 C490.133389,29.8344011 488.139201,30.3385499 486.369079,31.0555614 C484.598957,31.7725729 483.176137,32.8144803 482.10062,34.1812835 C481.025102,35.5480867 480.487344,37.4414452 480.487344,39.8613591 C480.487344,41.6090747 480.789833,43.1215208 481.394811,44.3986976 C481.99979,45.6758744 482.828835,46.7289851 483.881945,47.5580296 C484.935056,48.3870742 486.167419,48.9920527 487.579036,49.372965 C488.990652,49.7538774 490.503098,49.9443336 492.116374,49.9443336 C493.819277,49.9443336 495.28691,49.7874873 496.519273,49.4737948 C497.751637,49.1601022 498.849561,48.71197 499.813045,48.1293982 C500.776529,47.5468263 501.650387,46.8186115 502.434618,45.9447537 C503.21885,45.0708959 503.991878,44.0738018 504.753702,42.9534713 L504.888142,42.9534713 C504.888142,43.8497357 504.944159,44.6675769 505.056192,45.4069951 C505.168225,46.1464132 505.403494,46.7850016 505.762,47.3227602 C506.120506,47.8605189 506.624654,48.2750411 507.274446,48.5663271 C507.924238,48.857613 508.786892,49.003256 509.862409,49.003256 C510.444981,49.003256 510.926723,48.9808494 511.307636,48.9360361 C511.688548,48.8912229 512.125477,48.8240031 512.618422,48.7343766 L512.618422,45.1717257 C512.215103,45.3509785 511.766971,45.440605 511.274026,45.440605 C509.615937,45.440605 508.786892,44.5891538 508.786892,42.8862514 L508.786892,24.4680181 C508.786892,22.1377306 508.40598,20.2443721 507.644155,18.7879424 C506.88233,17.3315128 505.896439,16.199979 504.686483,15.393341 C503.476526,14.5867031 502.109722,14.0377411 500.586073,13.7464552 C499.062423,13.4551693 497.538774,13.3095263 496.015124,13.3095263 C493.99853,13.3095263 492.161188,13.5335924 490.503098,13.9817246 C488.845009,14.4298568 487.399783,15.1244617 486.167419,16.0655393 C484.935056,17.006617 483.960368,18.2165739 483.243357,19.6954101 C482.526345,21.1742464 482.10062,22.921962 481.96618,24.9385569 Z M504.552043,30.0472639 L504.552043,35.55929 C504.552043,37.2621923 504.227147,38.7858418 503.577355,40.1302384 C502.927564,41.474635 502.053706,42.6173721 500.955782,43.5584497 C499.857858,44.4995274 498.569478,45.2165389 497.090642,45.7094843 C495.611805,46.2024297 494.065749,46.4489024 492.452473,46.4489024 C491.466583,46.4489024 490.503098,46.2920562 489.562021,45.9783636 C488.620943,45.6646711 487.791899,45.2053356 487.074887,44.6003571 C486.357876,43.9953786 485.786507,43.2783671 485.360781,42.4493226 C484.935056,41.620278 484.722193,40.6679971 484.722193,39.5924798 C484.722193,37.8895774 485.226342,36.5787907 486.234639,35.6601197 C487.242937,34.7414487 488.531317,34.0356405 490.099779,33.5426951 C491.668242,33.0497497 493.404754,32.6800406 495.309316,32.4335679 C497.213878,32.1870952 499.062423,31.9070126 500.854952,31.59332 C501.437524,31.5036936 502.109722,31.3468473 502.871547,31.1227812 C503.633372,30.8987151 504.148724,30.5402094 504.417603,30.0472639 L504.552043,30.0472639 Z"/>
      <path fill="url(#password-generator-logo-t)" d="M523.978574,14.3178238 L523.978574,3.89875013 L519.743724,3.89875013 L519.743724,14.3178238 L513.69394,14.3178238 L513.69394,17.8804747 L519.743724,17.8804747 L519.743724,41.6090747 C519.698911,44.5667472 520.23667,46.5945454 521.357,47.6924693 C522.477331,48.7903932 524.449112,49.3393551 527.272345,49.3393551 C527.89973,49.3393551 528.527115,49.3169485 529.154501,49.2721353 C529.781886,49.2273221 530.409271,49.2049155 531.036656,49.2049155 L531.036656,45.6422645 C529.826699,45.7767041 528.616742,45.843924 527.406785,45.843924 C525.883136,45.7542975 524.930855,45.3173686 524.549942,44.5331373 C524.16903,43.7489059 523.978574,42.6621853 523.978574,41.2729755 L523.978574,17.8804747 L531.036656,17.8804747 L531.036656,14.3178238 L523.978574,14.3178238 Z"/>
      <path fill="url(#password-generator-logo-n)" d="M551.807583,16.8721773 C553.824178,16.8721773 555.5943,17.2979029 557.11795,18.1493541 C558.641599,19.0008052 559.907573,20.1211357 560.91587,21.5103456 C561.924168,22.8995554 562.685992,24.4792214 563.201344,26.2493436 C563.716696,28.0194657 563.974372,29.8231978 563.974372,31.6605399 C563.974372,33.4978819 563.716696,35.301614 563.201344,37.0717362 C562.685992,38.8418583 561.924168,40.4215243 560.91587,41.8107342 C559.907573,43.199944 558.641599,44.3202745 557.11795,45.1717257 C555.5943,46.0231768 553.824178,46.4489024 551.807583,46.4489024 C549.790988,46.4489024 548.020866,46.0231768 546.497217,45.1717257 C544.973567,44.3202745 543.707594,43.199944 542.699296,41.8107342 C541.690999,40.4215243 540.929174,38.8418583 540.413822,37.0717362 C539.89847,35.301614 539.640794,33.4978819 539.640794,31.6605399 C539.640794,29.8231978 539.89847,28.0194657 540.413822,26.2493436 C540.929174,24.4792214 541.690999,22.8995554 542.699296,21.5103456 C543.707594,20.1211357 544.973567,19.0008052 546.497217,18.1493541 C548.020866,17.2979029 549.790988,16.8721773 551.807583,16.8721773 Z M551.807583,13.3095263 C549.163603,13.3095263 546.822113,13.8024717 544.783111,14.7883626 C542.74411,15.7742534 541.030004,17.0962434 539.640794,18.7543325 C538.251584,20.4124217 537.198474,22.3505934 536.481462,24.5688478 C535.764451,26.7871022 535.405945,29.1509995 535.405945,31.6605399 C535.405945,34.1700802 535.764451,36.5339775 536.481462,38.7522319 C537.198474,40.9704863 538.251584,42.9086581 539.640794,44.5667472 C541.030004,46.2248363 542.74411,47.535623 544.783111,48.4991072 C546.822113,49.4625915 549.163603,49.9443336 551.807583,49.9443336 C554.451563,49.9443336 556.793054,49.4625915 558.832055,48.4991072 C560.871057,47.535623 562.585163,46.2248363 563.974372,44.5667472 C565.363582,42.9086581 566.416693,40.9704863 567.133704,38.7522319 C567.850716,36.5339775 568.209222,34.1700802 568.209222,31.6605399 C568.209222,29.1509995 567.850716,26.7871022 567.133704,24.5688478 C566.416693,22.3505934 565.363582,20.4124217 563.974372,18.7543325 C562.585163,17.0962434 560.871057,15.7742534 558.832055,14.7883626 C556.793054,13.8024717 554.451563,13.3095263 551.807583,13.3095263 Z"/>
      <path fill="url(#password-generator-logo-o)" d="M574.527886,14.3178238 L574.527886,49.003256 L578.762735,49.003256 L578.762735,30.5178028 C578.762735,28.6804607 579.076428,26.9887617 579.703813,25.4427056 C580.331198,23.8966495 581.216259,22.5634562 582.358996,21.4431257 C583.501733,20.3227952 584.857333,19.4601407 586.425796,18.8551623 C587.994258,18.2501838 589.741974,17.9925078 591.668942,18.0821342 L591.668942,13.8472849 C588.532017,13.7128453 585.83202,14.4074502 583.568953,15.9310997 C581.305885,17.4547492 579.636593,19.6281903 578.561076,22.4514232 L578.426636,22.4514232 L578.426636,14.3178238 L574.527886,14.3178238 Z"/>
    </g>
  </g>
</svg>
