<svg xmlns="http://www.w3.org/2000/svg" xmlns:xlink="http://www.w3.org/1999/xlink" width="200" height="90" viewBox="0 0 200 90">
  <defs>
    <polygon id="password-generator-logo-a" points="0 0 84.438 0 84.438 43.561 0 43.561"/>
  </defs>
  <g fill="none" fill-rule="evenodd">
    <path fill="#000" d="M200,10.3635539 C200,6.8396065 199.607643,3.38226292 198.843516,0 C176.469477,10.6844632 137.593435,29.2136451 115.562103,39.6002076 L116.798512,43.5625292 L196.989507,26.966069 C198.952504,21.6644052 200,16.10117 200,10.3635539"/>
    <mask id="password-generator-logo-b" fill="#fff">
      <use xlink:href="#password-generator-logo-a"/>
    </mask>
    <path fill="#000" d="M1.15636336,0 C0.393446911,3.38226292 -0.000121097849,6.8396065 -0.000121097849,10.3635539 C-0.000121097849,16.10117 1.04737529,21.6644052 3.0115824,26.966069 L83.201367,43.5613182 L84.437776,39.5989966 C62.4076553,29.2136451 23.5304019,10.6844632 1.15636336,0" mask="url(#password-generator-logo-b)"/>
    <path fill="#000" d="M6.02159054 33.6425567C10.8437069 42.6207512 18.3590394 50.6931338 27.9160816 57.380157L81.2778487 49.724351 82.8775513 44.5982791 6.02159054 33.6425567zM34.5044101 61.6015069C41.6818796 65.7902815 49.7554732 69.2706337 58.5035818 71.8887692L87.541635 54.4991181 80.7989067 51.3081898 34.5044101 61.6015069zM172.084766 57.3797937C181.640597 50.6927705 189.157141 42.6203879 193.978046 33.6421934L117.122085 44.5979158 118.721788 49.7239877 172.084766 57.3797937zM141.496903 71.8884059C150.246222 69.2702704 158.317394 65.7899182 165.496074 61.6011436L119.200367 51.3078265 112.458849 54.4987548 141.496903 71.8884059zM76.702772 82.0280499C78.7989758 83.5175534 80.9835809 84.8181443 83.231157 85.904392L94.4145434 57.7527751 92.1161062 56.6641054 76.702772 82.0280499zM85.490964 86.9273056C88.1430069 88.0256631 90.895561 88.8345967 93.711086 89.3395747L97.4639083 62.0974026 95.060116 58.4136061 85.490964 86.9273056zM116.769327 85.9046342C119.016903 84.8183865 121.201509 83.5177956 123.297712 82.0282921L107.884378 56.6643476 105.585941 57.7518063 116.769327 85.9046342zM106.288914 89.3392114C109.104439 88.8342334 111.856993 88.0252998 114.509036 86.9269423L104.939884 58.4144538 102.536092 62.0982503 106.288914 89.3392114zM98.4468595 63.6026489L96.4015169 89.8191222C97.4114729 89.9075236 98.4347498 89.945064 99.4580266 89.945064 99.6384624 89.945064 99.8188982 89.9341652 100.000545 89.9317432 100.180981 89.9341652 100.361417 89.945064 100.543063 89.945064 101.56634 89.945064 102.588406 89.9075236 103.598362 89.8191222L101.553019 63.6026489 100.000545 65.9822216 98.4468595 63.6026489zM107.563106 52.4568029L101.388326 50.7311585 111.410384 48.1251328 107.563106 52.4568029zM92.4379843 52.4568029L88.5907056 48.1251328 98.6115526 50.7311585 92.4379843 52.4568029z"/>
    <polygon fill="#000" points="107.563 52.457 111.41 48.125 101.388 50.731"/>
    <polygon fill="#000" points="92.437 52.457 98.612 50.731 88.59 48.125"/>
  </g>
</svg>
