<svg height="640" viewBox="0 0 1280 640" width="1280" xmlns="http://www.w3.org/2000/svg" xmlns:xlink="http://www.w3.org/1999/xlink"><radialGradient id="a" cx="50%" cy="100%" gradientTransform="matrix(.5 0 0 1 .25 0)" r="200%"><stop offset="0" stop-color="#0d324d"/><stop offset="1" stop-color="#7f5a83"/></radialGradient><linearGradient id="b"><stop offset="0" stop-color="#dc79ff"/><stop offset="1" stop-color="#2997ff"/></linearGradient><linearGradient id="c" x1="0%" x2="196.812%" xlink:href="#b" y1="0%" y2="0%"/><linearGradient id="d" x1="1.981%" x2="196.812%" xlink:href="#b" y1="0%" y2="0%"/><g fill="none" fill-rule="evenodd"><path d="m0 0h1280v640h-1280z" fill="url(#a)"/><g transform="translate(266.931 106.667)"><g fill="url(#c)"><path d="m315.327647 38.7019949c0-13.1599445-1.465231-26.0711616-4.318814-38.7019949-83.554342 39.9004091-228.734307 109.096392-311.008833 147.884311l4.61728638 14.797024 299.46787862-61.978364c7.330677-19.7987073 11.242482-40.5742348 11.242482-62.0009761" transform="matrix(-1 0 0 1 315.328 0)"/><path d="m744.787671 38.7019949c0-13.1599445-1.465231-26.0711616-4.318814-38.7019949-83.554342 39.9004091-228.734307 109.096392-311.008833 147.884311l4.617286 14.797024 299.467879-61.978364c7.330677-19.7987073 11.242482-40.5742348 11.242482-62.0009761"/><path d="m20.3883493 129.3703c18.0078691 33.528463 46.0733728 63.674233 81.7635037 88.646471l199.27593-28.590092 5.973982-19.142971z"/><path d="m130.489958 233.781119c26.803777 15.642697 56.954069 28.639838 89.623292 38.417089l108.440656-64.940483-25.180265-11.916307z"/><path d="m640.540107 218.015415c35.685609-24.972239 63.755635-55.118008 81.758982-88.646472l-287.013415 40.913408 5.973981 19.142971z"/><path d="m522.577354 272.196851c32.673745-9.777251 62.814993-22.774392 89.623292-38.417089l-172.888206-38.4397-25.175742 11.916307z"/><path d="m284.342467 310.062669c7.828132 5.562451 15.986393 10.41942 24.379815 14.475939l41.763604-105.130319-8.583359-4.065564c-11.012667 18.122275-19.272168 31.71398-24.778501 40.775118-7.284791 11.987739-18.211977 29.969348-32.781559 53.944826z"/><path d="m317.161379 328.35861c9.903875 4.101742 20.183103 7.12265 30.697492 9.008457l14.014663-101.734059-8.976801-13.756891z"/><path d="m433.968323 324.539513c8.393421-4.056519 16.551682-8.913488 24.379814-14.475939l-57.560059-94.719945-8.583359 4.061042z"/><path d="m394.829924 337.36571c10.514389-1.885806 20.793617-4.906714 30.697493-9.008457l-35.735355-106.47797-8.976801 13.75689z"/><path d="m365.544299 241.254249-7.638195 97.903656c3.771613.330129 7.592972.470321 11.41433.470321.673826 0 1.347651-.040701 2.025999-.049746.673825.009045 1.34765.049746 2.025998.049746 3.821358 0 7.638195-.140192 11.409808-.470321l-7.638195-97.903656-5.797611 8.886354z"/><path d="m399.588 199.631-23.059-6.444 37.427-9.732z"/><path d="m343.105 199.631-14.368-16.176 37.422 9.732z"/><path d="m399.588 199.631 14.368-16.176-37.427 9.732z"/></g><path d="m343.103 199.631 23.059-6.444-37.427-9.732z" fill="url(#d)"/></g><g fill="url(#c)" fill-rule="nonzero" transform="translate(344.361 483.389)"><path d="m4.57094843 24.5352379v-19.62819032h15.72944017c3.1817386 0 5.7584988.80663796 7.7302804 2.41991387 1.9717817 1.61327592 2.9576726 4.07800305 2.9576726 7.39418125 0 3.3161783-.9858909 5.7809054-2.9576726 7.3941813-1.9717816 1.6132759-4.5485418 2.4199139-7.7302804 2.4199139zm-4.57094843-23.52694045v47.99495855h4.57094843v-20.569268h16.73773767c2.1510345 0 4.1004096-.3024892 5.8481252-.9074677 1.7477155-.6049784 3.2489584-1.5012428 4.5037286-2.6887932 1.2547701-1.1875503 2.2182543-2.6327766 2.8904526-4.335679s1.0082975-3.6298708 1.0082975-5.7809054c0-2.1510345-.3360992-4.078003-1.0082975-5.78090533-.6721983-1.70290236-1.6356825-3.1481287-2.8904526-4.33567903-1.2547702-1.18755032-2.7560131-2.08381472-4.5037286-2.68879319-1.7477156-.60497847-3.6970907-.9074677-5.8481252-.9074677z"/><path d="m41.1385359 24.9385569h4.2348492c.0896265-2.8232329.9858909-4.8734377 2.6887932-6.1506145 1.7029024-1.2771767 3.8987502-1.9157651 6.5875434-1.9157651 1.2547701 0 2.4311171.1008297 3.529041.3024892s2.0614082.5713686 2.8904527 1.1091272c.8290446.5377587 1.4788363 1.2659735 1.9493751 2.1846445s.7058082 2.095018.7058082 3.5290411c0 .9410776-.1232364 1.7029023-.3697091 2.2854742-.2464727.5825718-.5937751 1.0419073-1.0419073 1.3780065-.4481322.3360991-1.0082975.5713685-1.6804958.7058082s-1.4564296.2464727-2.352694.3360991c-2.2854742.2688794-4.5373385.548962-6.7555929.8402479s-4.2124427.7954347-5.9825649 1.5124462-3.1929419 1.7589189-4.2684592 3.1257221c-1.0755172 1.3668032-1.6132759 3.2601617-1.6132759 5.6800756 0 1.7477156.3024892 3.2601617.9074677 4.5373385s1.4340231 2.3302875 2.4871337 3.159332c1.0531107.8290446 2.2854742 1.4340231 3.6970907 1.8149354 1.4116164.3809124 2.9240626.5713686 4.5373385.5713686 1.7029023 0 3.1705353-.1568463 4.4028988-.4705388 1.2323636-.3136926 2.3302875-.7618248 3.2937717-1.3443966.9634842-.5825719 1.837342-1.3107867 2.6215734-2.1846445.7842313-.8738578 1.5572593-1.8709519 2.3190841-2.9912824h.1344396c0 .8962644.0560166 1.7141056.1680496 2.4535238.1120331.7394181.3473025 1.3780065.7058082 1.9157651.3585058.5377587.8626545.9522809 1.5124462 1.2435669.6497917.2912859 1.5124462.4369289 2.5879635.4369289.5825718 0 1.0643139-.0224066 1.4452263-.0672199.3809124-.0448132.8178413-.112033 1.3107867-.2016595v-3.5626509c-.403319.1792528-.8514512.2688793-1.3443966.2688793-1.6580892 0-2.4871337-.8514512-2.4871337-2.5543536v-18.4182333c0-2.3302875-.3809124-4.223646-1.1427371-5.6800757-.7618248-1.4564296-1.7477156-2.5879634-2.9576725-3.3946014-1.209957-.8066379-2.5767602-1.3555999-4.1004097-1.6468858-1.5236494-.2912859-3.0472989-.4369289-4.5709484-.4369289-2.0165949 0-3.8539369.2240661-5.512026.6721983-1.6580892.4481322-3.1033155 1.1427371-4.3356791 2.0838147-1.2323635.9410777-2.207051 2.1510346-2.9240626 3.6298708-.7170115 1.4788363-1.1427371 3.2265519-1.2771767 5.2431468zm22.5858628 5.108707v5.5120261c0 1.7029023-.3248958 3.2265518-.9746875 4.5709484s-1.5236495 2.4871337-2.6215734 3.4282113c-1.0979239.9410777-2.386304 1.6580892-3.8651402 2.1510346-1.4788363.4929454-3.0248924.7394181-4.6381683.7394181-.9858908 0-1.949375-.1568462-2.8904527-.4705388-.9410776-.3136925-1.7701221-.773028-2.4871337-1.3780065-.7170115-.6049785-1.28838-1.32199-1.7141056-2.1510345-.4257256-.8290446-.6385884-1.7813255-.6385884-2.8568428 0-1.7029024.5041487-3.0136891 1.5124462-3.9323601 1.0082974-.918671 2.2966775-1.6244792 3.8651402-2.1174246s3.3049749-.8626545 5.2095368-1.1091272c1.9045618-.2464727 3.7531072-.5265553 5.545636-.8402479.5825718-.0896264 1.2547701-.2464727 2.0165949-.4705388.7618247-.2240661 1.2771767-.5825718 1.546056-1.0755173z"/><path d="m97.199874 24.4680181h4.234849c-.089626-1.8821553-.470539-3.5178378-1.142737-4.9070476-.6721982-1.3892098-1.5796659-2.5543535-2.722403-3.4954312-1.1427371-.9410776-2.4647271-1.6356825-3.9659699-2.0838147-1.5012429-.4481322-3.1257221-.6721983-4.8734377-.6721983-1.5236495 0-3.0585023.1792529-4.6045583.5377586-1.5460561.3585058-2.9464693.9186711-4.2012394 1.6804958-1.2547702.7618247-2.2742709 1.7701222-3.0585023 3.0248923-.7842313 1.2547702-1.176347 2.7560131-1.176347 4.5037286 0 1.4788363.2464727 2.7224031.7394181 3.7307006.4929455 1.0082974 1.1763471 1.8597486 2.0502048 2.5543535.8738578.6946049 1.8933586 1.2771768 3.0585023 1.7477156s2.4423205.8850611 3.8315303 1.2435669l5.4448062 1.2099569c.9410776.2240661 1.870952.4929454 2.789623.806638.918671.3136925 1.7365122.7058082 2.4535238 1.176347.7170115.4705388 1.28838 1.0531106 1.7141056 1.7477156.4257256.6946049.6385884 1.5572593.6385884 2.5879634 0 1.2099569-.3024892 2.2294577-.9074677 3.0585023-.6049785.8290445-1.3780065 1.5124461-2.3190841 2.0502048-.9410777.5377586-1.9605784.918671-3.0585023 1.1427371s-2.1622379.3360991-3.1929419.3360991c-2.8232329 0-5.1871302-.7282148-7.0916921-2.1846444-1.9045618-1.4564297-2.9464692-3.6186676-3.125722-6.4867136h-4.2348493c.3585057 4.2572559 1.8037321 7.349368 4.335679 9.2763365s5.8369219 2.8904527 9.9149249 2.8904527c1.6132759 0 3.2489584-.1792529 4.9070476-.5377587 1.6580891-.3585057 3.1481287-.9522809 4.4701187-1.7813255 1.32199-.8290445 2.4087103-1.9045618 3.2601613-3.2265518.851452-1.32199 1.277177-2.9240626 1.277177-4.8062178 0-1.5236495-.291286-2.8456395-.873858-3.96597-.582571-1.1203305-1.333193-2.0614081-2.2518639-2.8232328-.918671-.7618248-1.9717817-1.3780065-3.159332-1.8485454-1.1875503-.4705388-2.386304-.7954346-3.5962609-.9746875l-5.6464657-1.2771768c-.7170115-.1792528-1.5012429-.4145222-2.3526941-.7058082-.8514511-.2912859-1.6356825-.660995-2.352694-1.1091272s-1.3107867-.9970941-1.7813255-1.6468858-.7058082-1.4452263-.7058082-2.386304c0-1.1203304.2464727-2.0614081.7394181-2.8232328s1.1427371-1.3780065 1.9493751-1.8485453c.8066379-.4705388 1.691699-.806638 2.6551833-1.0082975.9634842-.2016595 1.9157651-.3024892 2.8568427-.3024892 1.209957 0 2.3526941.145643 3.4282114.4369289 1.0755172.2912859 2.0277982.7506214 2.8568427 1.3780065.8290446.6273851 1.4900396 1.4228197 1.982985 2.386304.4929454.9634842.7618247 2.095018.806638 3.3946014zm32.332738 0h4.234849c-.089626-1.8821553-.470538-3.5178378-1.142737-4.9070476-.672198-1.3892098-1.579666-2.5543535-2.722403-3.4954312-1.142737-.9410776-2.464727-1.6356825-3.96597-2.0838147s-3.125722-.6721983-4.873437-.6721983c-1.52365 0-3.058503.1792529-4.604559.5377586-1.546056.3585058-2.946469.9186711-4.201239 1.6804958s-2.274271 1.7701222-3.058502 3.0248923c-.784232 1.2547702-1.176347 2.7560131-1.176347 4.5037286 0 1.4788363.246472 2.7224031.739418 3.7307006.492945 1.0082974 1.176347 1.8597486 2.050205 2.5543535.873857.6946049 1.893358 1.2771768 3.058502 1.7477156 1.165143.4705388 2.44232.8850611 3.83153 1.2435669l5.444806 1.2099569c.941078.2240661 1.870952.4929454 2.789623.806638.918671.3136925 1.736512.7058082 2.453524 1.176347s1.28838 1.0531106 1.714106 1.7477156c.425725.6946049.638588 1.5572593.638588 2.5879634 0 1.2099569-.302489 2.2294577-.907468 3.0585023-.604978.8290445-1.378006 1.5124461-2.319084 2.0502048-.941077.5377586-1.960578.918671-3.058502 1.1427371s-2.162238.3360991-3.192942.3360991c-2.823233 0-5.18713-.7282148-7.091692-2.1846444-1.904562-1.4564297-2.946469-3.6186676-3.125722-6.4867136h-4.234849c.358505 4.2572559 1.803732 7.349368 4.335679 9.2763365s5.836922 2.8904527 9.914925 2.8904527c1.613275 0 3.248958-.1792529 4.907047-.5377587 1.658089-.3585057 3.148129-.9522809 4.470119-1.7813255 1.32199-.8290445 2.40871-1.9045618 3.260162-3.2265518.851451-1.32199 1.277176-2.9240626 1.277176-4.8062178 0-1.5236495-.291286-2.8456395-.873857-3.96597-.582572-1.1203305-1.333194-2.0614081-2.251865-2.8232328-.918671-.7618248-1.971781-1.3780065-3.159332-1.8485454-1.18755-.4705388-2.386304-.7954346-3.596261-.9746875l-5.646465-1.2771768c-.717012-.1792528-1.501243-.4145222-2.352694-.7058082-.851452-.2912859-1.635683-.660995-2.352694-1.1091272-.717012-.4481322-1.310787-.9970941-1.781326-1.6468858s-.705808-1.4452263-.705808-2.386304c0-1.1203304.246473-2.0614081.739418-2.8232328s1.142737-1.3780065 1.949375-1.8485453 1.691699-.806638 2.655183-1.0082975c.963485-.2016595 1.915765-.3024892 2.856843-.3024892 1.209957 0 2.352694.145643 3.428211.4369289 1.075518.2912859 2.027799.7506214 2.856843 1.3780065.829045.6273851 1.49004 1.4228197 1.982985 2.386304.492946.9634842.761825 2.095018.806638 3.3946014z"/><path d="m137.599 14.318 11.158 34.685h4.639l8.469-29.173h.135l8.537 29.173h4.638l11.158-34.685h-4.503l-8.873 29.711h-.135l-8.47-29.711h-4.772l-8.47 29.711h-.134l-8.873-29.711z"/><path d="m205.55824 16.8721773c2.016595 0 3.786717.4257256 5.310366 1.2771768 1.52365.8514511 2.789623 1.9717816 3.797921 3.3609915 1.008297 1.3892098 1.770122 2.9688758 2.285474 4.738998.515352 1.7701221.773028 3.5738542.773028 5.4111963 0 1.837342-.257676 3.6410741-.773028 5.4111963-.515352 1.7701221-1.277177 3.3497881-2.285474 4.738998-1.008298 1.3892098-2.274271 2.5095403-3.797921 3.3609915-1.523649.8514511-3.293771 1.2771767-5.310366 1.2771767s-3.786717-.4257256-5.310367-1.2771767c-1.523649-.8514512-2.789623-1.9717817-3.79792-3.3609915-1.008298-1.3892099-1.770122-2.9688759-2.285474-4.738998-.515353-1.7701222-.773029-3.5738543-.773029-5.4111963 0-1.8373421.257676-3.6410742.773029-5.4111963.515352-1.7701222 1.277176-3.3497882 2.285474-4.738998 1.008297-1.3892099 2.274271-2.5095404 3.79792-3.3609915 1.52365-.8514512 3.293772-1.2771768 5.310367-1.2771768zm0-3.562651c-2.64398 0-4.985471.4929454-7.024473 1.4788363-2.039001.9858908-3.753107 2.3078808-5.142317 3.9659699-1.389209 1.6580892-2.44232 3.5962609-3.159332 5.8145153-.717011 2.2182544-1.075517 4.5821517-1.075517 7.0916921 0 2.5095403.358506 4.8734376 1.075517 7.091692.717012 2.2182544 1.770123 4.1564262 3.159332 5.8145153 1.38921 1.6580891 3.103316 2.9688758 5.142317 3.93236 2.039002.9634843 4.380493 1.4452264 7.024473 1.4452264s4.98547-.4817421 7.024472-1.4452264c2.039001-.9634842 3.753107-2.2742709 5.142317-3.93236s2.44232-3.5962609 3.159332-5.8145153c.717011-2.2182544 1.075517-4.5821517 1.075517-7.091692 0-2.5095404-.358506-4.8734377-1.075517-7.0916921-.717012-2.2182544-1.770122-4.1564261-3.159332-5.8145153-1.38921-1.6580891-3.103316-2.9800791-5.142317-3.9659699-2.039002-.9858909-4.380492-1.4788363-7.024472-1.4788363z"/><path d="m228.278542 14.3178238v34.6854322h4.234849v-18.4854532c0-1.8373421.313693-3.5290411.941078-5.0750972s1.512446-2.8792494 2.655183-3.9995799 2.498337-1.982985 4.0668-2.5879634c1.568463-.6049785 3.316178-.8626545 5.243147-.7730281v-4.2348493c-3.136926-.1344396-5.836922.5601653-8.09999 2.0838148-2.263067 1.5236495-3.93236 3.6970906-5.007877 6.5203235h-.13444v-8.1335994z"/><path d="m278.760634 49.003256v-47.99495855h-4.234849v19.89706965h-.13444c-.448132-1.2547702-1.08672-2.3526941-1.915765-3.2937717-.829044-.9410776-1.781325-1.7365123-2.856842-2.3863039-1.075518-.6497917-2.229458-1.1315338-3.461822-1.4452264-1.232363-.3136925-2.498337-.4705388-3.79792-.4705388-2.64398 0-4.940658.4929454-6.890033 1.4788363-1.949375.9858908-3.573854 2.3190841-4.873437 3.9995798-1.299584 1.6804958-2.263068 3.6298709-2.890453 5.8481252-.627385 2.2182544-.941078 4.5597452-.941078 7.0244723s.313693 4.8062178.941078 7.0244722 1.590869 4.1676294 2.890453 5.8481252c1.299583 1.6804957 2.924062 3.0024857 4.873437 3.9659699 1.949375.9634843 4.246053 1.4452264 6.890033 1.4452264 1.25477 0 2.520744-.1792529 3.79792-.5377587 1.277177-.3585057 2.475931-.8626544 3.596261-1.5124461 1.120331-.6497917 2.117425-1.4452264 2.991283-2.386304.873857-.9410776 1.534852-1.9717817 1.982985-3.0921122h.134439v6.5875434zm-27.761789-17.3427161c0-1.7925288.212862-3.5738543.638588-5.3439765s1.097924-3.3497882 2.016595-4.738998 2.095018-2.5207436 3.529041-3.3946014 3.159332-1.3107867 5.175927-1.3107867c2.240661 0 4.134019.4369289 5.680076 1.3107867 1.546056.8738578 2.800826 2.0053916 3.76431 3.3946014s1.658089 2.9688758 2.083815 4.738998c.425725 1.7701222.638588 3.5514477.638588 5.3439765s-.212863 3.5738542-.638588 5.3439764c-.425726 1.7701222-1.120331 3.3497882-2.083815 4.738998-.963484 1.3892099-2.218254 2.5207437-3.76431 3.3946014-1.546057.8738578-3.439415 1.3107867-5.680076 1.3107867-2.016595 0-3.741904-.4369289-5.175927-1.3107867-1.434023-.8738577-2.61037-2.0053915-3.529041-3.3946014-.918671-1.3892098-1.590869-2.9688758-2.016595-4.738998s-.638588-3.5514476-.638588-5.3439764z"/><path d="m347.324861 49.003256v-24.4007983h-20.367609v3.8987502h16.334419c.044813 2.5543535-.291286 4.9070475-1.008297 7.0580821-.717012 2.1510345-1.792529 4.0107832-3.226552 5.5792459s-3.192942 2.7896229-5.276757 3.6634807-4.447712 1.3107867-7.091692 1.3107867c-3.181739 0-5.915345-.6049785-8.200819-1.8149354-2.285474-1.209957-4.156426-2.8120296-5.612856-4.8062179-1.45643-1.9941882-2.531947-4.2572559-3.226552-6.7892028s-1.041907-5.0975037-1.041907-7.6966705c0-2.64398.347302-5.2207401 1.041907-7.7302804s1.770122-4.7614046 3.226552-6.7555929c1.45643-1.99418831 3.327382-3.59626093 5.612856-4.80621786 2.285474-1.20995694 5.01908-1.81493541 8.200819-1.81493541 2.285474 0 4.346882.36970907 6.184224 1.10912719 1.837342.73941813 3.417008 1.69169906 4.738998 2.85684277 1.32199 1.16514372 2.375101 2.45352381 3.159332 3.86514021.784232 1.4116164 1.243567 2.8120296 1.378007 4.2012394h4.570948c-.448132-2.64398-1.277176-4.9518608-2.487133-6.9236425-1.209957-1.97178168-2.688794-3.62987081-4.436509-4.97426741-1.747716-1.3443966-3.741904-2.35269404-5.982565-3.02489234s-4.615762-1.00829745-7.125302-1.00829745c-3.76431 0-7.069285.6834016-9.914925 2.05020481-2.845639 1.36680321-5.209537 3.20414522-7.091692 5.51202605-1.882155 2.30788082-3.293772 4.96306414-4.234849 7.96554984-.941078 3.0024857-1.411617 6.1618177-1.411617 9.477996s.470539 6.4755103 1.411617 9.477996c.941077 3.0024857 2.352694 5.6464657 4.234849 7.9319399 1.882155 2.2854743 4.246053 4.111613 7.091692 5.4784162 2.84564 1.3668032 6.150615 2.0502048 9.914925 2.0502048 1.747716 0 3.439415-.1792529 5.075097-.5377587 1.635683-.3585057 3.170536-.9298743 4.604559-1.7141056 1.434023-.7842314 2.744809-1.7925288 3.93236-3.0248924 1.18755-1.2323635 2.184644-2.6999965 2.991282-4.4028988h.13444l.604978 8.7385779z"/><path d="m380.262577 29.240626h-22.451423c.179253-1.5684627.548962-3.1033155 1.109127-4.6045584.560166-1.5012428 1.310787-2.8232328 2.251865-3.9659699.941077-1.1427371 2.083815-2.0614081 3.428211-2.756013 1.344397-.694605 2.890453-1.0419074 4.638168-1.0419074 1.702903 0 3.226552.3473024 4.570949 1.0419074 1.344396.6946049 2.487133 1.6132759 3.428211 2.756013s1.669293 2.4535238 2.184645 3.93236c.515352 1.4788363.795434 3.0248924.840247 4.6381683zm-22.451423 3.562651h26.686273c.089626-2.4199139-.13444-4.8062179-.672199-7.1589119-.537758-2.3526941-1.422819-4.4365088-2.655183-6.2514442-1.232363-1.8149354-2.834436-3.2825683-4.806218-4.4028988-1.971781-1.1203305-4.346882-1.6804958-7.125302-1.6804958-2.733606 0-5.097503.5265553-7.091692 1.579666-1.994188 1.0531107-3.618667 2.4423205-4.873437 4.1676295-1.254771 1.7253089-2.184645 3.6858873-2.789623 5.8817351-.604979 2.1958477-.907468 4.4365087-.907468 6.721983 0 2.4647271.302489 4.8062178.907468 7.0244722.604978 2.2182544 1.534852 4.1676294 2.789623 5.8481252 1.25477 1.6804957 2.879249 3.0024857 4.873437 3.9659699 1.994189.9634843 4.358086 1.4452264 7.091692 1.4452264 4.391696 0 7.786297-1.0755173 10.183805-3.2265519 2.397507-2.1510345 4.044393-5.1983335 4.940657-9.1418968h-4.234849c-.672198 2.6887932-1.882155 4.8398277-3.629871 6.4531037-1.747716 1.6132759-4.167629 2.4199138-7.259742 2.4199138-2.016595 0-3.741903-.4257256-5.175927-1.2771767-1.434023-.8514512-2.621573-1.9269685-3.562651-3.2265519-.941077-1.2995834-1.624479-2.7672163-2.050204-4.4028988-.425726-1.6356826-.638589-3.2153486-.638589-4.738998z"/><path d="m390.143892 14.3178238v34.6854322h4.23485v-20.2331688c.044813-1.7029024.324896-3.2825684.840248-4.738998.515352-1.4564297 1.232363-2.7111998 2.151034-3.7643105s2.039002-1.8821552 3.360992-2.4871337 2.834436-.9074677 4.537338-.9074677c1.702903 0 3.125722.2688793 4.268459.806638 1.142737.5377586 2.050205 1.2771767 2.722403 2.2182543.672199.9410777 1.142738 2.0502048 1.411617 3.3273816s.403319 2.6551833.403319 4.1340195v21.6447853h4.234849v-22.3169835c0-2.0614082-.201659-3.9211568-.604978-5.5792459-.403319-1.6580892-1.097924-3.0585023-2.083815-4.2012394s-2.296678-2.0277982-3.93236-2.6551833c-1.635683-.6273851-3.663481-.9410776-6.083395-.9410776-2.464727 0-4.727794.6385884-6.789203 1.9157652-2.061408 1.2771767-3.495431 2.9688758-4.302069 5.0750971h-.134439v-5.9825648z"/><path d="m451.246718 29.240626h-22.451423c.179252-1.5684627.548962-3.1033155 1.109127-4.6045584.560165-1.5012428 1.310786-2.8232328 2.251864-3.9659699s2.083815-2.0614081 3.428211-2.756013c1.344397-.694605 2.890453-1.0419074 4.638169-1.0419074 1.702902 0 3.226552.3473024 4.570948 1.0419074 1.344397.6946049 2.487134 1.6132759 3.428211 2.756013.941078 1.1427371 1.669293 2.4535238 2.184645 3.93236.515352 1.4788363.795435 3.0248924.840248 4.6381683zm-22.451423 3.562651h26.686272c.089627-2.4199139-.13444-4.8062179-.672198-7.1589119-.537759-2.3526941-1.42282-4.4365088-2.655184-6.2514442-1.232363-1.8149354-2.834436-3.2825683-4.806217-4.4028988-1.971782-1.1203305-4.346883-1.6804958-7.125302-1.6804958-2.733607 0-5.097504.5265553-7.091692 1.579666-1.994189 1.0531107-3.618668 2.4423205-4.873438 4.1676295-1.25477 1.7253089-2.184644 3.6858873-2.789623 5.8817351-.604978 2.1958477-.907468 4.4365087-.907468 6.721983 0 2.4647271.30249 4.8062178.907468 7.0244722.604979 2.2182544 1.534853 4.1676294 2.789623 5.8481252 1.25477 1.6804957 2.879249 3.0024857 4.873438 3.9659699 1.994188.9634843 4.358085 1.4452264 7.091692 1.4452264 4.391695 0 7.786297-1.0755173 10.183804-3.2265519 2.397507-2.1510345 4.044393-5.1983335 4.940657-9.1418968h-4.234849c-.672198 2.6887932-1.882155 4.8398277-3.629871 6.4531037-1.747715 1.6132759-4.167629 2.4199138-7.259741 2.4199138-2.016595 0-3.741904-.4257256-5.175927-1.2771767-1.434023-.8514512-2.621574-1.9269685-3.562651-3.2265519-.941078-1.2995834-1.624479-2.7672163-2.050205-4.4028988-.425726-1.6356826-.638588-3.2153486-.638588-4.738998z"/><path d="m461.195253 14.3178238v34.6854322h4.234849v-18.4854532c0-1.8373421.313692-3.5290411.941077-5.0750972.627386-1.5460561 1.512447-2.8792494 2.655184-3.9995799s2.498337-1.982985 4.066799-2.5879634c1.568463-.6049785 3.316179-.8626545 5.243147-.7730281v-4.2348493c-3.136925-.1344396-5.836922.5601653-8.099989 2.0838148-2.263068 1.5236495-3.93236 3.6970906-5.007878 6.5203235h-.134439v-8.1335994z"/><path d="m481.96618 24.9385569h4.234849c.089627-2.8232329.985891-4.8734377 2.688793-6.1506145 1.702903-1.2771767 3.898751-1.9157651 6.587544-1.9157651 1.25477 0 2.431117.1008297 3.529041.3024892s2.061408.5713686 2.890453 1.1091272c.829044.5377587 1.478836 1.2659735 1.949375 2.1846445.470538.918671.705808 2.095018.705808 3.5290411 0 .9410776-.123237 1.7029023-.369709 2.2854742-.246473.5825718-.593775 1.0419073-1.041908 1.3780065-.448132.3360991-1.008297.5713685-1.680495.7058082-.672199.1344397-1.45643.2464727-2.352694.3360991-2.285475.2688794-4.537339.548962-6.755593.8402479-2.218255.2912859-4.212443.7954347-5.982565 1.5124462s-3.192942 1.7589189-4.268459 3.1257221c-1.075518 1.3668032-1.613276 3.2601617-1.613276 5.6800756 0 1.7477156.302489 3.2601617.907467 4.5373385.604979 1.2771768 1.434024 2.3302875 2.487134 3.159332 1.053111.8290446 2.285474 1.4340231 3.697091 1.8149354 1.411616.3809124 2.924062.5713686 4.537338.5713686 1.702903 0 3.170536-.1568463 4.402899-.4705388 1.232364-.3136926 2.330288-.7618248 3.293772-1.3443966.963484-.5825719 1.837342-1.3107867 2.621573-2.1846445.784232-.8738578 1.55726-1.8709519 2.319084-2.9912824h.13444c0 .8962644.056017 1.7141056.16805 2.4535238.112033.7394181.347302 1.3780065.705808 1.9157651.358506.5377587.862654.9522809 1.512446 1.2435669.649792.2912859 1.512446.4369289 2.587963.4369289.582572 0 1.064314-.0224066 1.445227-.0672199.380912-.0448132.817841-.112033 1.310786-.2016595v-3.5626509c-.403319.1792528-.851451.2688793-1.344396.2688793-1.658089 0-2.487134-.8514512-2.487134-2.5543536v-18.4182333c0-2.3302875-.380912-4.223646-1.142737-5.6800757-.761825-1.4564296-1.747716-2.5879634-2.957672-3.3946014-1.209957-.8066379-2.576761-1.3555999-4.10041-1.6468858-1.52365-.2912859-3.047299-.4369289-4.570949-.4369289-2.016594 0-3.853936.2240661-5.512026.6721983-1.658089.4481322-3.103315 1.1427371-4.335679 2.0838147-1.232363.9410777-2.207051 2.1510346-2.924062 3.6298708-.717012 1.4788363-1.142737 3.2265519-1.277177 5.2431468zm22.585863 5.108707v5.5120261c0 1.7029023-.324896 3.2265518-.974688 4.5709484-.649791 1.3443966-1.523649 2.4871337-2.621573 3.4282113-1.097924.9410777-2.386304 1.6580892-3.86514 2.1510346-1.478837.4929454-3.024893.7394181-4.638169.7394181-.98589 0-1.949375-.1568462-2.890452-.4705388-.941078-.3136925-1.770122-.773028-2.487134-1.3780065-.717011-.6049785-1.28838-1.32199-1.714106-2.1510345-.425725-.8290446-.638588-1.7813255-.638588-2.8568428 0-1.7029024.504149-3.0136891 1.512446-3.9323601 1.008298-.918671 2.296678-1.6244792 3.86514-2.1174246 1.568463-.4929454 3.304975-.8626545 5.209537-1.1091272s3.753107-.5265553 5.545636-.8402479c.582572-.0896264 1.25477-.2464727 2.016595-.4705388s1.277177-.5825718 1.546056-1.0755173z"/><path d="m523.978574 14.3178238v-10.41907367h-4.23485v10.41907367h-6.049784v3.5626509h6.049784v23.7286c-.044813 2.9576725.492946 4.9854707 1.613276 6.0833946 1.120331 1.0979239 3.092112 1.6468858 5.915345 1.6468858.627385 0 1.25477-.0224066 1.882156-.0672198.627385-.0448132 1.25477-.0672198 1.882155-.0672198v-3.562651c-1.209957.1344396-2.419914.2016595-3.629871.2016595-1.523649-.0896265-2.47593-.5265554-2.856843-1.3107867-.380912-.7842314-.571368-1.870952-.571368-3.2601618v-23.3925008h7.058082v-3.5626509z"/><path d="m551.807583 16.8721773c2.016595 0 3.786717.4257256 5.310367 1.2771768 1.523649.8514511 2.789623 1.9717816 3.79792 3.3609915 1.008298 1.3892098 1.770122 2.9688758 2.285474 4.738998.515352 1.7701221.773028 3.5738542.773028 5.4111963 0 1.837342-.257676 3.6410741-.773028 5.4111963-.515352 1.7701221-1.277176 3.3497881-2.285474 4.738998-1.008297 1.3892098-2.274271 2.5095403-3.79792 3.3609915-1.52365.8514511-3.293772 1.2771767-5.310367 1.2771767s-3.786717-.4257256-5.310366-1.2771767c-1.52365-.8514512-2.789623-1.9717817-3.797921-3.3609915-1.008297-1.3892099-1.770122-2.9688759-2.285474-4.738998-.515352-1.7701222-.773028-3.5738543-.773028-5.4111963 0-1.8373421.257676-3.6410742.773028-5.4111963.515352-1.7701222 1.277177-3.3497882 2.285474-4.738998 1.008298-1.3892099 2.274271-2.5095404 3.797921-3.3609915 1.523649-.8514512 3.293771-1.2771768 5.310366-1.2771768zm0-3.562651c-2.64398 0-4.98547.4929454-7.024472 1.4788363-2.039001.9858908-3.753107 2.3078808-5.142317 3.9659699-1.38921 1.6580892-2.44232 3.5962609-3.159332 5.8145153-.717011 2.2182544-1.075517 4.5821517-1.075517 7.0916921 0 2.5095403.358506 4.8734376 1.075517 7.091692.717012 2.2182544 1.770122 4.1564262 3.159332 5.8145153s3.103316 2.9688758 5.142317 3.93236c2.039002.9634843 4.380492 1.4452264 7.024472 1.4452264s4.985471-.4817421 7.024472-1.4452264c2.039002-.9634842 3.753108-2.2742709 5.142317-3.93236 1.38921-1.6580891 2.442321-3.5962609 3.159332-5.8145153.717012-2.2182544 1.075518-4.5821517 1.075518-7.091692 0-2.5095404-.358506-4.8734377-1.075518-7.0916921-.717011-2.2182544-1.770122-4.1564261-3.159332-5.8145153-1.389209-1.6580891-3.103315-2.9800791-5.142317-3.9659699-2.039001-.9858909-4.380492-1.4788363-7.024472-1.4788363z"/><path d="m574.527886 14.3178238v34.6854322h4.234849v-18.4854532c0-1.8373421.313693-3.5290411.941078-5.0750972s1.512446-2.8792494 2.655183-3.9995799 2.498337-1.982985 4.0668-2.5879634c1.568462-.6049785 3.316178-.8626545 5.243146-.7730281v-4.2348493c-3.136925-.1344396-5.836922.5601653-8.099989 2.0838148-2.263068 1.5236495-3.93236 3.6970906-5.007877 6.5203235h-.13444v-8.1335994z"/></g></g></svg>